<?xml version="1.0" encoding="utf-8" ?><svg xmlns="http://www.w3.org/2000/svg" xmlns:xlink="http://www.w3.org/1999/xlink" width="32" height="32" viewBox="0 0 32 32"><path fill="#A85607" transform="matrix(0.0625 0 0 0.0625 0 -0.00012207)" d="M0 0L512 0L512 512L500.186 512L487.688 512L402.958 512L393.997 512L391.233 512L253.378 512L115.682 512L113.474 512L112.11 512L110.38 512L79.0689 512L55.4525 512L8.89287 512L5.30417 512L0 512L0 0Z"/><path fill="white" transform="matrix(0.0625 0 0 0.0625 0 -0.00012207)" d="M0 0L512 0L512 512L500.186 512C494.527 495.07 487.621 478.85 480.365 462.561C475.757 452.217 470.729 442.021 466.136 431.678C465.585 430.401 464.918 429.027 464.329 427.756C460.494 419.495 456.609 411.258 452.675 403.045C446.72 390.632 442.228 381.059 433.851 370.025C431.152 365.875 420.506 355.597 416.203 353.148C413.74 351.076 405.579 346.099 402.506 344.861C400.868 344.873 396.206 342.262 393.913 341.49C393.75 341.486 393.587 341.482 393.424 341.477C391.769 340.596 388.92 339.558 387.149 338.894C386.12 339.705 385.473 338.933 384.295 338.233C381.08 336.321 378.008 336.548 374.47 336.213C374.012 336.17 372.314 335.004 372.027 334.49C370.997 334.261 369.968 334.027 368.939 333.788C377.202 329.22 384.494 324.941 390.847 317.723C392.092 316.309 394.008 314.107 394.853 312.501C395.253 312.073 395.624 311.618 395.963 311.14C398.114 308.148 399.826 304.925 401.395 301.604C410.774 281.743 409.001 263.715 405.533 243.056C404.185 235.311 402.164 227.79 400.439 220.163C397.739 208.231 394.741 196.855 391.512 185.032C383.793 157.007 377.189 126.755 362.137 101.553C354.751 89.1863 341.385 73.0177 330.202 63.922C328.733 62.605 326.509 60.4886 324.955 59.4221C322.89 57.4004 314.56 51.313 312.009 50.1168C311.011 49.8291 310.429 49.6118 309.467 50.1543C309.164 52.0265 313.792 54.2198 314.405 55.7613L314.274 55.9549C312.503 54.5521 306.519 48.8833 304.63 48.7259L303.447 47.1309L303.82 46.2408C302.189 44.2034 291.232 40.8954 289.924 39.2129C288.156 38.3131 281.461 36.4258 279.571 36.0365C273.984 34.4238 267.021 33.7183 261.205 33.447C220.47 31.5472 182.403 59.1623 159.934 91.4839C158.22 96.3193 151.957 103.023 150.224 108.05C150.452 108.208 150.303 108.15 150.702 108.09C150.668 108.978 149.948 109.667 149.959 109.772C150.283 112.881 149.832 113.756 148.645 116.257C145.029 122.711 142.447 129.382 139.873 136.274C137.857 141.671 136.844 146.508 135.52 152.131C134.942 154.584 133.336 159.712 133.347 161.973C131.135 170.454 128.045 178.607 126.039 187.143C124.859 192.16 123.273 196.907 121.777 201.824C120.417 206.343 119.061 212.777 117.797 217.629C116.084 221.922 115.756 227.04 114.706 231.645C113.016 239.066 110.834 246.445 108.787 253.741C107.503 258.32 108.011 263.979 105.477 268.539C105.005 269.585 104.934 270.474 104.212 271.574C104.206 276.435 104.339 280.544 105.122 285.387C108.383 305.361 121.208 324.292 139.864 332.829C127.077 334.732 116.933 337.438 105.288 343.328C100.93 345.547 98.1468 347.223 94.09 349.938C83.5578 355.943 71.8412 369.29 65.9942 379.608C59.6054 390.881 53.9743 403.516 48.543 415.299C38.5213 436.538 28.6859 457.864 19.0378 479.275C15.6011 487.24 12.205 495.223 8.84965 503.223C7.8419 505.623 6.33787 509.938 5.30417 512L0 512L0 0Z"/><path fill="#EBC397" transform="matrix(0.0625 0 0 0.0625 0 -0.00012207)" d="M123.784 183.658C123.922 181.617 127.246 170.619 127.86 168.327C134.217 144.601 140.018 121.863 153.593 100.991C155.141 98.6104 158.181 93.2909 159.934 91.4839C158.22 96.3193 151.957 103.023 150.224 108.05C150.452 108.208 150.303 108.15 150.702 108.09C150.668 108.978 149.948 109.667 149.959 109.772C150.283 112.881 149.832 113.756 148.645 116.257C145.029 122.711 142.447 129.382 139.873 136.274C137.857 141.671 136.844 146.508 135.52 152.131C134.942 154.584 133.336 159.712 133.347 161.973C131.135 170.454 128.045 178.607 126.039 187.143C124.859 192.16 123.273 196.907 121.777 201.824C121.614 200.763 121.657 199.798 121.048 199.105L121.123 198.709C121.823 197.301 123.923 184.96 123.784 183.658Z"/><defs><linearGradient id="gradient_0" gradientUnits="userSpaceOnUse" x1="116.4651" y1="232.00945" x2="110.77425" y2="230.35159"><stop offset="0" stop-color="#F5BD8B"/><stop offset="1" stop-color="#E5C9B0"/></linearGradient></defs><path fill="url(#gradient_0)" transform="matrix(0.0625 0 0 0.0625 0 -0.00012207)" d="M119.162 201.432C120.461 200.412 120.364 196.82 121.239 195.479C121.489 196.957 121.192 197.007 121.137 198.321L121.123 198.709L121.048 199.105C121.657 199.798 121.614 200.763 121.777 201.824C120.417 206.343 119.061 212.777 117.797 217.629C116.084 221.922 115.756 227.04 114.706 231.645C113.016 239.066 110.834 246.445 108.787 253.741C107.503 258.32 108.011 263.979 105.477 268.539C105.005 269.585 104.934 270.474 104.212 271.574C103.448 260.621 107.887 243.657 110.576 233.214C112.334 226.385 114.136 219.308 116.167 212.546C117.225 209.023 117.956 204.802 119.162 201.432Z"/><path fill="#A97850" transform="matrix(0.0625 0 0 0.0625 0 -0.00012207)" d="M289.924 39.2129C294.908 40.8637 308.242 47.0284 312.009 50.1168C311.011 49.8291 310.429 49.6118 309.467 50.1543C309.164 52.0265 313.792 54.2198 314.405 55.7613L314.274 55.9549C312.503 54.5521 306.519 48.8833 304.63 48.7259L303.447 47.1309L303.82 46.2408C302.189 44.2034 291.232 40.8954 289.924 39.2129Z"/><path fill="#A97850" transform="matrix(0.0625 0 0 0.0625 0 -0.00012207)" d="M372.027 334.49C382.662 336.848 392.834 339.569 402.506 344.861C400.868 344.873 396.206 342.262 393.913 341.49C393.75 341.486 393.587 341.482 393.424 341.477C391.769 340.596 388.92 339.558 387.149 338.894C386.12 339.705 385.473 338.933 384.295 338.233C381.08 336.321 378.008 336.548 374.47 336.213C374.012 336.17 372.314 335.004 372.027 334.49Z"/><path fill="#C7AD9B" transform="matrix(0.0625 0 0 0.0625 0 -0.00012207)" d="M119.162 201.432C119.883 197.559 122.631 187.625 123.784 183.658C123.923 184.96 121.823 197.301 121.123 198.709L121.137 198.321C121.192 197.007 121.489 196.957 121.239 195.479C120.364 196.82 120.461 200.412 119.162 201.432Z"/><path fill="#E3972D" transform="matrix(0.0625 0 0 0.0625 0 -0.00012207)" d="M159.934 91.4839C182.403 59.1623 220.47 31.5472 261.205 33.447C267.021 33.7183 273.984 34.4238 279.571 36.0365C278.049 36.4319 276.3 35.6095 274.61 35.6503C274.527 36.8901 274.999 39.5635 274.726 40.3962C273.763 43.3355 273.096 43.1359 274.002 46.2592C273.701 47.5868 273.316 48.4695 273.003 49.6482C272.734 50.6598 273.015 53.3079 272.855 54.4058C272.174 59.0819 271.712 62.655 272.971 67.2848C273.4 68.8657 273.7 70.7426 274.255 72.3756C274.405 72.8157 275.28 74.8921 275.287 74.9855C275.338 75.724 275.165 76.2751 275.303 77.3497C276.058 78.3265 283.768 79.2757 285.387 79.3833C285.037 80.0124 284.974 80.0559 284.483 80.5962C284.364 81.2617 284.356 82.1688 283.625 82.364C279.15 83.5585 272.925 82.8132 268.258 83.4693C266.322 83.7415 264.474 84.5181 262.605 84.7675C256.671 85.5946 250.37 85.6362 244.467 86.4549C235.568 87.689 225.86 89.9704 217.253 92.3869C208.513 94.8408 200.771 98.3343 193.301 103.414C188.939 106.379 183.929 108.517 180.31 112.715C176.742 116.455 172.531 119.95 169.092 123.775C159.064 134.975 152.202 148.758 146.797 162.682C146.563 163.579 146.131 164.764 145.999 165.678C145.034 172.344 141.534 179.12 140.291 185.611C137.8 198.617 133.986 211.272 130.9 224.041C127.844 236.682 124.585 249.953 124.818 262.955C124.867 264.181 124.866 265.743 124.831 266.945C124.608 274.8 125.808 281.811 127.885 289.385C130.457 298.762 133.556 308.642 141.271 315.133C150.624 324.361 159.609 322.982 171.734 324.944C181.41 326.82 191.727 330.763 200.69 334.749C202.066 335.394 205.784 338.296 207.057 339.307C210.607 339.705 219.441 345.886 223.637 347.782C224.883 350.182 227.855 351.334 229.783 353.363C230.202 353.024 230.017 353.225 230.12 352.453C230.878 352.744 231.372 353.384 231.956 353.982C232.378 353.574 232.162 353.791 232.602 353.325C235.249 355.388 243.425 361.626 246.312 362.67C247.652 363.498 254.252 367.394 255.098 368.056C256.489 367.824 257.562 366.855 258.702 366.007C259.509 365.5 261.088 364.132 261.731 363.424C262.648 362.489 264.146 360.93 265.525 360.95C267.148 360.07 269.854 357.621 271.414 356.381C274.784 353.704 278.116 350.898 281.672 348.459C281.978 349.204 281.912 349.671 281.911 350.471C283.498 350.749 285.906 347.784 287.936 349.63C288.296 350.597 288.272 350.552 288.225 351.595C287.295 353.472 285.181 354.892 283.779 356.457C282.152 358.274 280.985 360.357 279.155 361.96C276.784 364.038 274.056 365.686 271.545 367.558C269.712 368.924 267.84 370.701 266.07 372.158C265.3 372.792 263.408 374.393 262.952 375.152C262.034 376.682 261.541 379.172 261.184 380.911C261.147 381.09 259.724 382.217 259.393 383.152L258.659 383.588C250.717 383.682 240.854 384.393 233.557 387.783L233.526 388.092C230.332 389.332 226.769 390.995 223.833 392.754L224.352 392.561C223.198 394.634 221.981 396.371 220.997 398.536C220.6 399.41 219.887 402.458 219.637 402.844C218.635 404.395 216.143 406.525 215.131 408.085C213.344 410.837 212.504 414.016 211.13 416.962C210.712 417.858 208.123 421.171 208.026 421.663C207.705 423.289 207.784 426.054 207.488 427.989C206.571 433.986 204.673 440.915 205.266 446.965C205.308 447.396 206.65 450.617 206.351 452.018C206.408 452.659 205.71 452.88 205.947 453.56C206.544 455.277 207.537 456.847 208.224 458.547C208.817 460.015 209.031 461.269 209.172 462.845C209.423 465.662 210.026 468.437 209.736 471.278C209.588 472.729 208.747 474.067 208.199 475.403C208.373 475.641 208.546 475.878 208.72 476.116C207.461 479.023 207.432 477.524 208.757 479.859C209.659 481.448 216.576 486.885 216.676 487.901C221.133 491.645 226.755 494.702 232.087 497.02C232.852 497.353 235.874 498.446 236.298 498.825C236.751 502.629 242.763 499.991 243.516 504.553C243.427 504.015 250.318 511.187 250.402 511.237C251.337 511.334 251.445 511.31 252.344 511.223C252.952 511.515 252.913 511.504 253.378 512L115.682 512L113.474 512L112.11 512L110.38 512L79.0689 512L55.4525 512L8.89287 512L5.30417 512C6.33787 509.938 7.8419 505.623 8.84965 503.223C12.205 495.223 15.6011 487.24 19.0378 479.275C28.6859 457.864 38.5213 436.538 48.543 415.299C53.9743 403.516 59.6054 390.881 65.9942 379.608C71.8412 369.29 83.5578 355.943 94.09 349.938C98.1468 347.223 100.93 345.547 105.288 343.328C116.933 337.438 127.077 334.732 139.864 332.829C121.208 324.292 108.383 305.361 105.122 285.387C104.339 280.544 104.206 276.435 104.212 271.574C104.934 270.474 105.005 269.585 105.477 268.539C108.011 263.979 107.503 258.32 108.787 253.741C110.834 246.445 113.016 239.066 114.706 231.645C115.756 227.04 116.084 221.922 117.797 217.629C119.061 212.777 120.417 206.343 121.777 201.824C123.273 196.907 124.859 192.16 126.039 187.143C128.045 178.607 131.135 170.454 133.347 161.973C133.336 159.712 134.942 154.584 135.52 152.131C136.844 146.508 137.857 141.671 139.873 136.274C142.447 129.382 145.029 122.711 148.645 116.257C149.832 113.756 150.283 112.881 149.959 109.772C149.948 109.667 150.668 108.978 150.702 108.09C150.303 108.15 150.452 108.208 150.224 108.05C151.957 103.023 158.22 96.3193 159.934 91.4839Z"/><defs><linearGradient id="gradient_1" gradientUnits="userSpaceOnUse" x1="121.53891" y1="472.7081" x2="85.478432" y2="463.88077"><stop offset="0" stop-color="#B52800"/><stop offset="1" stop-color="#D57504"/></linearGradient></defs><path fill="url(#gradient_1)" transform="matrix(0.0625 0 0 0.0625 0 -0.00012207)" d="M106.602 425.982C108.204 425.217 109.435 421.426 111.937 420.586C114.639 420.648 116.188 425.336 117.096 427.457L117.156 427.848C118.04 433.382 120.404 440.965 119.469 446.907C119.129 448.365 119.169 452.791 119.078 454.675L118.087 478.369C117.971 481.127 117.283 487.681 117.437 489.886C116.525 491.305 117.96 490.762 116.833 491.532C116.345 487.712 118.438 478.52 117.232 475.37C116.96 478.435 117.107 483.965 116.526 486.596C116.438 493.699 114.792 501.151 113.951 508.204C113.805 509.431 113.677 510.793 113.474 512L112.11 512L110.38 512L79.0689 512C78.3743 510.128 75.3181 511.759 74.2349 510.93C75.5033 506.123 78.3373 500.861 80.1029 495.817C85.0403 481.713 90.3413 466.49 95.9436 452.655L102.685 436.171C103.387 434.414 105.163 430.347 105.363 428.637C105.373 427.576 106 426.817 106.602 425.982Z"/><path fill="#8C2403" transform="matrix(0.0625 0 0 0.0625 0 -0.00012207)" d="M110.38 512L110.497 511.478C110.968 511.276 110.879 511.312 111.298 511.013C111.348 507.77 111.831 506.52 112.334 503.392C112.658 501.381 112.881 498.886 113.133 496.823L116.896 464.222C117.428 459.304 117.454 454.655 117.504 449.709C117.533 446.824 117.362 444.135 117.729 441.281C118.929 443.779 118.651 460.119 118.242 463.553C117.725 467.888 117.234 470.251 117.232 475.37C116.96 478.435 117.107 483.965 116.526 486.596C116.438 493.699 114.792 501.151 113.951 508.204C113.805 509.431 113.677 510.793 113.474 512L112.11 512L110.38 512Z"/><path fill="#761D02" transform="matrix(0.0625 0 0 0.0625 0 -0.00012207)" d="M112.11 512C112.313 510.289 112.339 507.729 112.737 506.103C114.001 500.933 115.08 495.75 115.822 490.474C116.012 489.128 116.127 487.906 116.526 486.596C116.438 493.699 114.792 501.151 113.951 508.204C113.805 509.431 113.677 510.793 113.474 512L112.11 512Z"/><path fill="#EFC750" transform="matrix(0.0625 0 0 0.0625 0 -0.00012207)" d="M233.557 387.783L233.526 388.092C230.332 389.332 226.769 390.995 223.833 392.754L224.352 392.561C223.198 394.634 221.981 396.371 220.997 398.536C220.6 399.41 219.887 402.458 219.637 402.844C218.635 404.395 216.143 406.525 215.131 408.085C213.344 410.837 212.504 414.016 211.13 416.962C210.712 417.858 208.123 421.171 208.026 421.663C207.705 423.289 207.784 426.054 207.488 427.989C206.571 433.986 204.673 440.915 205.266 446.965C205.308 447.396 206.65 450.617 206.351 452.018C206.408 452.659 205.71 452.88 205.947 453.56C206.544 455.277 207.537 456.847 208.224 458.547C208.817 460.015 209.031 461.269 209.172 462.845C209.423 465.662 210.026 468.437 209.736 471.278C209.588 472.729 208.747 474.067 208.199 475.403C208.373 475.641 208.546 475.878 208.72 476.116C207.461 479.023 207.432 477.524 208.757 479.859C209.659 481.448 216.576 486.885 216.676 487.901C211.865 484.029 208.536 480.512 205.001 475.359C198.994 466.608 195.628 456.316 195.303 445.707C195.231 443.78 195.165 440.942 195.503 439.114C195.861 431.7 196.282 428.665 198.61 421.805C198.895 420.393 200.631 416.975 201.268 415.615C206.731 403.946 221.214 391.649 233.557 387.783Z"/><path fill="#EBC397" transform="matrix(0.0625 0 0 0.0625 0 -0.00012207)" d="M198.61 421.805L198.922 421.974C198.328 424.381 196.181 429.796 196.728 432.054L197.136 432.373C197.55 431.896 197.447 432.189 197.476 431.743C197.591 429.956 198.647 425.732 199.488 424.253C199.457 425.458 198.878 426.643 198.583 427.824C196.97 434.279 197.913 440.948 197.28 447.478C197.219 448.109 197.025 448.352 196.605 448.762C195.216 447.603 195.748 441.227 195.503 439.114C195.861 431.7 196.282 428.665 198.61 421.805Z"/><defs><linearGradient id="gradient_2" gradientUnits="userSpaceOnUse" x1="55.539654" y1="432.46118" x2="43.023548" y2="426.36484"><stop offset="0" stop-color="#E3A55F"/><stop offset="1" stop-color="#E9C19C"/></linearGradient></defs><path fill="url(#gradient_2)" transform="matrix(0.0625 0 0 0.0625 0 -0.00012207)" d="M94.09 349.938C95.4463 350.333 94.8926 349.453 95.8913 349.666C95.6473 350.062 95.4595 350.469 95.2775 350.897C94.4952 351.434 93.596 351.565 93.1022 352.147C93.9964 352.819 93.6815 352.407 94.1163 353.404L93.9911 353.828L93.442 354.12L93.4613 354.587C85.7143 360.485 76.101 369.946 70.6984 378.138C67.3973 383.143 64.1391 390.276 61.3005 395.686C59.0544 399.885 56.9533 404.176 54.7957 408.412C52.7206 412.487 51.3756 417.466 49.2936 421.38C44.2801 430.806 40.0508 440.296 36.1202 450.224C35.0536 452.918 32.9709 455.754 31.8526 458.498C30.6411 461.229 29.5527 463.997 28.3423 466.705L16.4645 493.204C14.7886 497.081 13.1609 500.979 11.5816 504.897C10.7881 506.837 9.37237 510.075 8.89287 512L5.30417 512C6.33787 509.938 7.8419 505.623 8.84965 503.223C12.205 495.223 15.6011 487.24 19.0378 479.275C28.6859 457.864 38.5213 436.538 48.543 415.299C53.9743 403.516 59.6054 390.881 65.9942 379.608C71.8412 369.29 83.5578 355.943 94.09 349.938Z"/><path fill="#C3691B" transform="matrix(0.0625 0 0 0.0625 0 -0.00012207)" d="M207.057 339.307C210.607 339.705 219.441 345.886 223.637 347.782C224.883 350.182 227.855 351.334 229.783 353.363C230.202 353.024 230.017 353.225 230.12 352.453C230.878 352.744 231.372 353.384 231.956 353.982C232.378 353.574 232.162 353.791 232.602 353.325C235.249 355.388 243.425 361.626 246.312 362.67C247.652 363.498 254.252 367.394 255.098 368.056C252.891 371.079 251.548 369.898 249.07 367.896L249.103 367.673C248.569 367.402 248.038 367.127 247.508 366.848C245.201 365.659 243.365 363.762 241.258 362.189C239.546 360.91 237.993 361.061 237.23 359.597C236.969 359.096 236.678 359.11 236.057 358.842L236.083 358.943C236.615 359.461 236.814 359.562 237.08 360.252L236.752 360.412C235.074 360.249 235.255 360.136 234.955 358.632L234.672 358.526L234.442 358.952C233.474 357.942 231.293 356.232 230.916 355.179C230.273 353.115 224.336 352.235 223.545 350.421C221.881 346.605 208.551 341.574 207.057 339.307Z"/><path fill="#C3691B" transform="matrix(0.0625 0 0 0.0625 0 -0.00012207)" d="M55.4525 512C55.5204 511.915 55.5839 511.826 55.6561 511.744C57.1887 510.007 69.3614 511.808 72.2758 511.164C73.1651 510.968 73.4159 509.061 73.6539 508.248C75.8373 500.789 80.0045 493.933 82.6559 486.633C83.4354 484.487 83.6652 482.109 84.6867 480.058C87.01 475.394 88.5338 470.012 90.2019 465.071C91.7074 460.612 93.4259 456.179 95.0255 451.753C96.8179 446.793 99.4222 441.988 101.458 437.104C102.454 434.715 103.577 430.383 105.363 428.637C105.163 430.347 103.387 434.414 102.685 436.171L95.9436 452.655C90.3413 466.49 85.0403 481.713 80.1029 495.817C78.3373 500.861 75.5033 506.123 74.2349 510.93C75.3181 511.759 78.3743 510.128 79.0689 512L55.4525 512Z"/><path fill="#EDBA5E" transform="matrix(0.0625 0 0 0.0625 0 -0.00012207)" d="M104.212 271.574C104.934 270.474 105.005 269.585 105.477 268.539C108.011 263.979 107.503 258.32 108.787 253.741C110.834 246.445 113.016 239.066 114.706 231.645C115.756 227.04 116.084 221.922 117.797 217.629C118.174 219.373 113.768 237.975 112.937 240.808C112.591 241.989 112.072 243.787 111.773 244.992C111.574 245.797 112.025 247.42 111.94 248.395C111.789 250.111 111.467 251.795 111.335 253.51C111.139 256.037 111.574 258.77 110.921 261.239C110.176 264.059 110.003 266.966 109.501 269.824C109.18 271.65 108.489 273.261 108.263 275.128L107.983 275.44C106.972 273.445 110.576 266.822 108.885 265.386C108.457 266.086 107.35 269.229 107.007 270.125C106.301 271.967 105.342 274.721 105.815 276.66C105.476 276.959 105.642 276.916 105.391 276.948C105.26 275.57 105.163 274.189 105.098 272.806L104.951 272.789C104.471 274.476 105.239 282.562 105.648 283.98C105.461 284.445 105.286 284.914 105.122 285.387C104.339 280.544 104.206 276.435 104.212 271.574Z"/><path fill="#EDBA5E" transform="matrix(0.0625 0 0 0.0625 0 -0.00012207)" d="M148.645 116.257C151.535 113.335 155.421 103.136 157.991 99.5131C158.232 99.1735 158.273 98.4055 158.275 97.9837C158.767 97.7651 158.551 97.7931 158.897 97.7875L159.264 98.5291L159.276 97.9707C159.276 98.5196 159.388 98.3121 159.101 98.7501C156.011 103.456 154.009 109.197 151.335 114.004C148.048 119.913 144.382 124.922 142.395 131.662C140.236 138.986 139.531 146.338 137.526 153.73C137.279 151.826 138.101 150.367 137.598 149.19L137.327 149.148C137.152 150.069 137.159 151.971 136.589 152.45C134.706 154.036 134.671 161.224 133.347 161.973C133.336 159.712 134.942 154.584 135.52 152.131C136.844 146.508 137.857 141.671 139.873 136.274C142.447 129.382 145.029 122.711 148.645 116.257Z"/><path fill="#620D01" transform="matrix(0.0625 0 0 0.0625 0 -0.00012207)" d="M117.232 475.37C118.438 478.52 116.345 487.712 116.833 491.532C117.96 490.762 116.525 491.305 117.437 489.886C117.283 487.681 117.971 481.127 118.087 478.369L119.078 454.675C119.169 452.791 119.129 448.365 119.469 446.907C119.518 460.205 118.791 473.611 118.003 486.889C117.517 495.066 116.086 503.98 115.682 512L113.474 512C113.677 510.793 113.805 509.431 113.951 508.204C114.792 501.151 116.438 493.699 116.526 486.596C117.107 483.965 116.96 478.435 117.232 475.37Z"/><path fill="#D48317" transform="matrix(0.0625 0 0 0.0625 0 -0.00012207)" d="M261.731 363.424C262.648 362.489 264.146 360.93 265.525 360.95C264.007 363.265 257.282 367.126 255.227 369.12C256.266 370.025 256.46 371.025 255.712 372.215C255.035 372.261 248.762 368.714 247.971 368.006C248.546 367.856 248.456 367.899 249.07 367.896C251.548 369.898 252.891 371.079 255.098 368.056C256.489 367.824 257.562 366.855 258.702 366.007C259.509 365.5 261.088 364.132 261.731 363.424Z"/><path fill="#C3691B" transform="matrix(0.0625 0 0 0.0625 0 -0.00012207)" d="M106.602 425.982C106.632 424.066 110.18 419.856 112.709 419.82C113.364 420.23 114.005 420.66 114.633 421.11C115.201 419.833 114.367 420.227 115.237 419.431C116.045 420.482 117.445 426.085 117.096 427.457C116.188 425.336 114.639 420.648 111.937 420.586C109.435 421.426 108.204 425.217 106.602 425.982Z"/><path fill="#E4B323" transform="matrix(0.0625 0 0 0.0625 0 -0.00012207)" d="M94.09 349.938C98.1468 347.223 100.93 345.547 105.288 343.328C104.103 345.695 100.601 345.913 98.584 347.486C96.353 349.225 96.4512 353.532 93.4613 354.587L93.442 354.12L93.9911 353.828L94.1163 353.404C93.6815 352.407 93.9964 352.819 93.1022 352.147C93.596 351.565 94.4952 351.434 95.2775 350.897C95.4595 350.469 95.6473 350.062 95.8913 349.666C94.8926 349.453 95.4463 350.333 94.09 349.938Z"/><defs><linearGradient id="gradient_3" gradientUnits="userSpaceOnUse" x1="184.40675" y1="349.06204" x2="182.47699" y2="354.15448"><stop offset="0" stop-color="#B54700"/><stop offset="1" stop-color="#DC7105"/></linearGradient></defs><path fill="url(#gradient_3)" transform="matrix(0.0625 0 0 0.0625 0 -0.00012207)" d="M177.743 350.447C175.684 350.798 175.367 351.141 173.211 350.372C171.849 349.886 170.332 349.464 168.97 348.945C167.804 348.502 166.784 349.059 165.8 348.31C166.398 347.927 166.903 347.873 167.595 347.719C164.798 346.751 162.221 347.134 159.738 346.503C155.848 345.513 151.511 342.243 147.461 341.799C146.22 341.663 143.099 341.536 144.303 339.262L144.619 339.334C145.668 341.533 147.358 341.271 149.528 341.339L149.662 340.992C149.168 340.686 148.897 340.318 148.677 339.778C147.856 337.755 145.417 337.834 144.487 335.879C144.513 335.929 143.901 335.06 143.919 335.086C145.017 335.464 145.217 336.471 146.332 336.712C146.713 336.311 146.744 336.239 147.034 335.761C147.785 335.593 158.596 339.879 160.409 340.513C182.099 348.102 204.583 354.828 224.227 367.138L224.417 367.258C223.207 366.766 221.781 366.073 220.52 365.952L220.515 366.11L220.765 366.237C221.691 366.713 221.648 366.717 222.417 367.268C224.463 368.733 226.942 369.66 229.13 371.019L229.081 371.308C223.666 369.024 217.635 365.181 212.212 362.38C205.62 358.974 199.745 356.855 193.106 354.006C189.982 353.847 187.283 352.302 184.287 351.402L184.235 351.633C185.745 352.865 185.738 352.768 187.661 353.249L187.736 353.507C186.666 353.522 178.26 350.94 177.743 350.447Z"/><path fill="#C3691B" transform="matrix(0.0625 0 0 0.0625 0 -0.00012207)" d="M177.743 350.447C177.189 350.185 173.355 347.494 173.122 347.204C173.7 347.288 173.315 347.18 173.835 347.463C176.135 348.715 179.901 349.064 182.208 349.951C185.8 351.331 189.555 352.637 193.106 354.006C189.982 353.847 187.283 352.302 184.287 351.402L184.235 351.633C185.745 352.865 185.738 352.768 187.661 353.249L187.736 353.507C186.666 353.522 178.26 350.94 177.743 350.447Z"/><defs><linearGradient id="gradient_4" gradientUnits="userSpaceOnUse" x1="330.83771" y1="298.81915" x2="161.20395" y2="214.39087"><stop offset="0" stop-color="#934D00"/><stop offset="1" stop-color="#FFD94E"/></linearGradient></defs><path fill="url(#gradient_4)" transform="matrix(0.0625 0 0 0.0625 0 -0.00012207)" d="M227.565 159.9L299.935 159.97C306.956 160.213 314.046 160.042 321.073 160.251C322.394 160.29 323.841 160.324 325.156 160.27C330.158 160.753 343.559 160.673 348.035 162.187C348.339 162.275 349.504 162.637 349.743 162.654C352.239 164.163 354.378 166.204 354.496 169.33C355.017 169.444 354.979 169.53 355.388 169.884L355.653 168.859C356.108 173.037 356.264 179.705 353.461 182.805C352.411 183.967 350.828 186.246 350.371 187.725C349.845 188.85 349.593 188.875 349.76 189.862C350.208 189.509 350.395 189.317 350.795 188.907C351.891 189.236 352.538 190.455 353.089 191.397C357.519 198.965 356.804 205.463 356.672 213.951C356.393 231.93 355.692 250.537 350.628 267.91C348.365 275.672 342.74 287.397 337.116 293.563C326.129 307.014 312.509 315.767 295.864 320.459C294.465 320.853 292.922 321.225 291.554 321.664C291.439 321.742 291.327 321.824 291.21 321.899C289.689 322.874 276.453 324.887 274.207 324.908C273.775 324.913 273.939 324.886 273.544 325.08C276.674 326.119 278.29 325.702 281 326.189C282.633 326.482 285.756 330.899 286.601 332.514C287.669 334.557 288.921 339.773 289.853 341.107C289.301 341.842 284.954 345.187 283.905 345.882C284.382 345.659 286.248 344.673 286.559 344.782C285.241 345.896 282.605 347.586 281.672 348.459C278.116 350.898 274.784 353.704 271.414 356.381C269.854 357.621 267.148 360.07 265.525 360.95C264.146 360.93 262.648 362.489 261.731 363.424C261.088 364.132 259.509 365.5 258.702 366.007C257.562 366.855 256.489 367.824 255.098 368.056C254.252 367.394 247.652 363.498 246.312 362.67C244.927 361.295 240.116 357.723 238.345 356.298C229.679 349.323 220.81 343.011 211.78 336.549C210.436 335.587 203.2 330.831 202.641 330.119L202.556 329.656L201.269 328.836C200.385 326.945 202.1 319.897 202.836 317.778C203.284 317.327 203.75 317.232 204.355 317.016C205.095 317.265 205.22 317.331 206.027 317.194L204.688 316.382C204.072 316.295 202.116 315.395 201.505 315.095C193.395 311.121 185.381 305.157 179.285 298.535C177.952 297.766 174.031 292.37 173.01 290.93C162.919 276.699 159.297 261.734 158.025 244.61C158.901 233.49 159.316 222.287 160.035 211.127C160.368 205.972 161.533 199.383 161.674 194.724C162.187 193.071 161.93 190.084 163.332 189.517C162.997 188.666 162.101 187.546 161.537 186.769C161.395 186.477 160.197 184.987 159.949 184.678C159.539 183.991 158.9 183.249 158.38 182.377C156.37 176.662 154.535 161.026 164.976 163.374C167.587 162.382 173.518 163.55 176.201 162.016C176.933 161.597 178.227 161.547 179.12 161.451C178.689 160.894 170.293 161.216 168.789 160.881C169.988 160.28 177.834 160.576 180.082 160.357L180.379 160.326C186.11 160.251 192.689 160.357 198.345 160.058C207.813 160.23 218.041 159.978 227.565 159.9Z"/><defs><linearGradient id="gradient_5" gradientUnits="userSpaceOnUse" x1="348.39981" y1="208.85315" x2="174.08946" y2="176.95543"><stop offset="0" stop-color="#060605"/><stop offset="1" stop-color="#2C2726"/></linearGradient></defs><path fill="url(#gradient_5)" transform="matrix(0.0625 0 0 0.0625 0 -0.00012207)" d="M227.565 159.9L299.935 159.97C306.956 160.213 314.046 160.042 321.073 160.251C322.394 160.29 323.841 160.324 325.156 160.27C330.158 160.753 343.559 160.673 348.035 162.187C348.339 162.275 349.504 162.637 349.743 162.654C352.239 164.163 354.378 166.204 354.496 169.33C355.017 169.444 354.979 169.53 355.388 169.884L355.653 168.859C356.108 173.037 356.264 179.705 353.461 182.805C352.411 183.967 350.828 186.246 350.371 187.725C349.539 187.495 349.936 187.457 349.148 187.887C348.138 189.42 348.116 190.573 347.193 191.836C344.486 201.366 345.022 218.834 335.474 223.587C326.008 228.299 298.468 228.491 288.704 225.843C285.779 224.962 283.002 223.829 280.568 221.728C276.311 218.054 273.168 210.576 272.368 205.107C272.303 204.665 272.48 205.032 272.114 204.546C270.569 204.632 270.159 204.618 268.657 205.186C268.602 202.704 268.039 194.638 267.511 192.473C267.205 191.161 267.123 189.266 266.724 188.053C264.871 182.428 253.647 184.223 249.531 185.642L248.561 186.351C245.547 188.528 245.325 191.36 245.252 194.795C244.899 198.021 244.772 202.564 244.726 205.855C244.63 208.912 244.478 212.167 244.48 215.207C244.405 215.741 244.067 219.494 244 219.549C244.033 217.752 244.293 214.555 243.682 213.017C243.393 212.29 243.516 211.525 243.559 210.715C243.107 211.037 242.948 211.299 242.904 211.935C242.555 216.937 244.053 220.326 239.796 224.07C236.272 227.168 232.836 227.136 228.599 227.904C222.004 229.349 220.288 229.584 213.579 230.255C208.25 230.292 204.393 230.305 199.116 229.833C198.502 229.594 196.175 228.371 195.854 227.797L196.624 227.406L196.516 227.102L191.39 226.854C183.69 225.734 172.678 224.592 170.334 215.35C169.603 213.954 169.327 212.71 168.9 211.198C168.085 207.379 167.181 203.857 166.404 199.926L166.119 197.799C165.771 195.894 165.481 194.798 164.921 192.938C164.452 191.743 163.898 190.666 163.332 189.517C162.997 188.666 162.101 187.546 161.537 186.769C161.395 186.477 160.197 184.987 159.949 184.678C159.539 183.991 158.9 183.249 158.38 182.377C156.37 176.662 154.535 161.026 164.976 163.374C167.587 162.382 173.518 163.55 176.201 162.016C176.933 161.597 178.227 161.547 179.12 161.451C178.689 160.894 170.293 161.216 168.789 160.881C169.988 160.28 177.834 160.576 180.082 160.357L180.379 160.326C186.11 160.251 192.689 160.357 198.345 160.058C207.813 160.23 218.041 159.978 227.565 159.9Z"/><defs><linearGradient id="gradient_6" gradientUnits="userSpaceOnUse" x1="238.0356" y1="198.80881" x2="169.0027" y2="189.57709"><stop offset="0" stop-color="#141313"/><stop offset="1" stop-color="#2D2D2E"/></linearGradient></defs><path fill="url(#gradient_6)" transform="matrix(0.0625 0 0 0.0625 0 -0.00012207)" d="M169.96 179.749C169.755 178.34 169.993 176.263 170.484 174.936C170.667 174.436 170.835 173.931 170.988 173.42C173.632 164.849 191.489 165.926 198.323 166.213C200.171 166.86 206.085 166.388 208.371 166.41C214.827 166.473 233.529 167.294 238.174 171.818C238.626 172.257 239.267 173.023 239.808 173.265C242.533 178.39 239.697 188.834 238.287 194.52C236.454 201.915 235.088 212.745 229.11 218.008C228.11 218.888 226.04 219.9 225.361 220.55C215.077 223.176 213.949 222.907 203.501 222.994C201.312 222.891 191.104 222.637 189.912 222.007L190.862 221.823C190.666 221.653 186.862 221.03 186.156 220.926C184.361 220.66 180.009 219.233 178.588 218.24C171.808 213.503 170.966 199.353 170.239 191.759C169.93 188.533 170.483 183.256 170.018 179.95C169.999 179.883 169.98 179.816 169.96 179.749Z"/><defs><linearGradient id="gradient_7" gradientUnits="userSpaceOnUse" x1="190.93036" y1="191.62125" x2="172.9998" y2="181.37402"><stop offset="0" stop-color="#363636"/><stop offset="1" stop-color="#767575"/></linearGradient></defs><path fill="url(#gradient_7)" transform="matrix(0.0625 0 0 0.0625 0 -0.00012207)" d="M177.452 170.641C180.903 168.462 198.189 167.977 202.377 168.642L202.576 168.79C201.222 168.875 198.858 168.739 197.318 168.75C199.933 173.082 198.495 179.08 196.008 183.052C192.106 189.282 182.555 207.758 175.69 209.312C175.558 209.933 175.651 210.17 175.755 210.799C173.141 208.05 172.11 182.867 172.975 178.431C173.313 175.213 174.304 172.089 177.452 170.641Z"/><path fill="#7C7A7B" transform="matrix(0.0625 0 0 0.0625 0 -0.00012207)" d="M177.452 170.641L179.213 170.452C181.215 173.224 177.767 183.723 174.006 183.552C173.81 183.388 173.614 183.225 173.419 183.061C173.285 181.846 173.074 179.505 172.975 178.431C173.313 175.213 174.304 172.089 177.452 170.641Z"/><defs><linearGradient id="gradient_8" gradientUnits="userSpaceOnUse" x1="179.297" y1="181.72324" x2="161.19777" y2="166.6637"><stop offset="0" stop-color="#464547"/><stop offset="1" stop-color="#A19FA1"/></linearGradient></defs><path fill="url(#gradient_8)" transform="matrix(0.0625 0 0 0.0625 0 -0.00012207)" d="M158.38 182.377C156.37 176.662 154.535 161.026 164.976 163.374C166.275 164.049 172.688 163.287 174.883 163.373C174.436 163.424 171.821 163.648 171.592 163.758L171.818 163.771C175.022 163.928 182.741 162.998 185.196 164.268L185.6 164.849C185.019 166.106 182.159 165.96 180.845 166.008C173.209 166.286 168.176 170.455 168.836 178.591C168.996 180.571 168.722 183.576 169.46 185.456L169.442 185.743C169.309 188.088 169.811 193.11 168.554 194.92L168.165 195.037C167.717 194.589 167.294 194.175 166.868 193.704L166.511 194.38L166.245 194.453C165.84 195.894 166.492 196.322 166.119 197.799C165.771 195.894 165.481 194.798 164.921 192.938C164.452 191.743 163.898 190.666 163.332 189.517C162.997 188.666 162.101 187.546 161.537 186.769C161.395 186.477 160.197 184.987 159.949 184.678C159.539 183.991 158.9 183.249 158.38 182.377Z"/><path fill="#434243" transform="matrix(0.0625 0 0 0.0625 0 -0.00012207)" d="M158.38 182.377C156.37 176.662 154.535 161.026 164.976 163.374C166.275 164.049 172.688 163.287 174.883 163.373C174.436 163.424 171.821 163.648 171.592 163.758C158.774 164.483 160.364 165.087 160.295 178.041C160.286 179.616 160.753 181.049 161.338 182.489L161.517 182.939L161.627 183.208C163.906 187.393 165.809 189.642 166.245 194.453C165.84 195.894 166.492 196.322 166.119 197.799C165.771 195.894 165.481 194.798 164.921 192.938C164.452 191.743 163.898 190.666 163.332 189.517C162.997 188.666 162.101 187.546 161.537 186.769C161.395 186.477 160.197 184.987 159.949 184.678C159.539 183.991 158.9 183.249 158.38 182.377Z"/><path fill="#47352D" transform="matrix(0.0625 0 0 0.0625 0 -0.00012207)" d="M159.949 184.678L160.184 184.018C161.552 184.756 162.613 188.536 163.998 189.119C164.081 187.345 160.914 184.365 161.168 183.203L161.627 183.208C163.906 187.393 165.809 189.642 166.245 194.453C165.84 195.894 166.492 196.322 166.119 197.799C165.771 195.894 165.481 194.798 164.921 192.938C164.452 191.743 163.898 190.666 163.332 189.517C162.997 188.666 162.101 187.546 161.537 186.769C161.395 186.477 160.197 184.987 159.949 184.678Z"/><defs><linearGradient id="gradient_9" gradientUnits="userSpaceOnUse" x1="233.04338" y1="210.04713" x2="241.06137" y2="217.5692"><stop offset="0" stop-color="#622D01"/><stop offset="1" stop-color="#9E5007"/></linearGradient></defs><path fill="url(#gradient_9)" transform="matrix(0.0625 0 0 0.0625 0 -0.00012207)" d="M223.691 225.561C225.958 224.701 229.504 223.857 231.514 222.44C240.728 215.944 240.822 200.434 242.676 190.409C243.244 187.339 244.417 185.216 247.077 183.533C247.615 183.192 248.859 182.565 249.489 182.71C242.579 186.518 243.05 189.19 242.38 196.613C242.277 197.755 241.843 198.515 241.722 199.577C242.958 199.315 241.536 199.002 242.881 198.675C242.914 199.073 242.934 199.465 242.925 199.864C246.348 198.008 242.753 188.199 249.117 185.409L249.531 185.642L248.561 186.351C245.547 188.528 245.325 191.36 245.252 194.795C244.899 198.021 244.772 202.564 244.726 205.855C244.63 208.912 244.478 212.167 244.48 215.207C244.405 215.741 244.067 219.494 244 219.549C244.033 217.752 244.293 214.555 243.682 213.017C243.393 212.29 243.516 211.525 243.559 210.715C243.107 211.037 242.948 211.299 242.904 211.935C242.555 216.937 244.053 220.326 239.796 224.07C236.272 227.168 232.836 227.136 228.599 227.904C226.952 225.235 226.674 225.443 223.691 225.561Z"/><defs><linearGradient id="gradient_10" gradientUnits="userSpaceOnUse" x1="209.25087" y1="222.44568" x2="204.04434" y2="232.44772"><stop offset="0" stop-color="#A56200"/><stop offset="1" stop-color="#D67F16"/></linearGradient></defs><path fill="url(#gradient_10)" transform="matrix(0.0625 0 0 0.0625 0 -0.00012207)" d="M223.691 225.561C226.674 225.443 226.952 225.235 228.599 227.904C222.004 229.349 220.288 229.584 213.579 230.255C208.25 230.292 204.393 230.305 199.116 229.833C198.502 229.594 196.175 228.371 195.854 227.797L196.624 227.406L196.516 227.102C205.99 227.563 214.399 227.557 223.691 225.561Z"/><path fill="#434243" transform="matrix(0.0625 0 0 0.0625 0 -0.00012207)" d="M174.883 163.373L190.249 162.826C192.599 162.724 198.653 162.271 200.833 162.728C198.437 162.858 193.825 162.744 191.784 163.134C191.592 164.595 192.436 163.258 191.868 165.585C192.546 165.937 198.753 165.879 200.292 166.001C199.591 166.188 199.042 166.179 198.323 166.213C191.489 165.926 173.632 164.849 170.988 173.42C170.835 173.931 170.667 174.436 170.484 174.936C169.993 176.263 169.755 178.34 169.96 179.749C169.513 181.321 169.611 183.613 169.628 185.29L169.46 185.456C168.722 183.576 168.996 180.571 168.836 178.591C168.176 170.455 173.209 166.286 180.845 166.008C182.159 165.96 185.019 166.106 185.6 164.849L185.196 164.268C182.741 162.998 175.022 163.928 171.818 163.771L171.592 163.758C171.821 163.648 174.436 163.424 174.883 163.373Z"/><defs><linearGradient id="gradient_11" gradientUnits="userSpaceOnUse" x1="231.87854" y1="198.25084" x2="238.62796" y2="200.95688"><stop offset="0" stop-color="#68666C"/><stop offset="1" stop-color="#919CA1"/></linearGradient></defs><path fill="url(#gradient_11)" transform="matrix(0.0625 0 0 0.0625 0 -0.00012207)" d="M239.808 173.265L240.397 173.042C241.641 174.106 242.003 177.054 242.128 178.66C242.627 185.07 236.089 212.23 231.725 217.146C230.416 218.621 228.745 219.866 227.039 220.843C225.975 220.774 225.087 221.371 223.933 221.527C224.444 221.2 224.869 220.9 225.361 220.55C226.04 219.9 228.11 218.888 229.11 218.008C235.088 212.745 236.454 201.915 238.287 194.52C239.697 188.834 242.533 178.39 239.808 173.265Z"/><path fill="#434243" transform="matrix(0.0625 0 0 0.0625 0 -0.00012207)" d="M169.628 185.29C169.607 191.87 170.189 198.438 171.366 204.912C171.779 207.078 173.301 210.447 173.338 212.441C172.654 210.647 171.749 208.277 171.499 206.4C170.965 206.819 170.999 206.826 170.642 207.417C169.773 207.65 169.617 207.63 168.739 207.673C168.258 208.943 170.494 213.243 170.334 215.35C169.603 213.954 169.327 212.71 168.9 211.198C168.085 207.379 167.181 203.857 166.404 199.926L166.119 197.799C166.492 196.322 165.84 195.894 166.245 194.453L166.511 194.38L166.868 193.704C167.294 194.175 167.717 194.589 168.165 195.037L168.554 194.92C169.811 193.11 169.309 188.088 169.442 185.743L169.46 185.456L169.628 185.29Z"/><path fill="#47352D" transform="matrix(0.0625 0 0 0.0625 0 -0.00012207)" d="M355.653 168.859C356.108 173.037 356.264 179.705 353.461 182.805C352.411 183.967 350.828 186.246 350.371 187.725C349.539 187.495 349.936 187.457 349.148 187.887C348.138 189.42 348.116 190.573 347.193 191.836C348.305 185.497 353.028 183.966 354.455 178.417C354.98 176.377 354.64 171.572 354.496 169.33C355.017 169.444 354.979 169.53 355.388 169.884L355.653 168.859Z"/><defs><linearGradient id="gradient_12" gradientUnits="userSpaceOnUse" x1="216.15846" y1="223.90121" x2="222.94432" y2="220.82558"><stop offset="0" stop-color="#434442"/><stop offset="1" stop-color="#57595D"/></linearGradient></defs><path fill="url(#gradient_12)" transform="matrix(0.0625 0 0 0.0625 0 -0.00012207)" d="M203.501 222.994C213.949 222.907 215.077 223.176 225.361 220.55C224.869 220.9 224.444 221.2 223.933 221.527C225.087 221.371 225.975 220.774 227.039 220.843C222.42 223.504 209.359 225.119 204.333 223.969L204.465 223.726L204.829 223.782C207.209 224.137 213.408 223.782 215.833 223.343C214.564 222.508 205.326 224.425 203.501 222.994Z"/><path fill="#434243" transform="matrix(0.0625 0 0 0.0625 0 -0.00012207)" d="M340.875 174.734C341.602 174.144 341.23 174.21 341.969 174.24C344.814 183.575 343.006 206.648 338.299 215.165C337.211 217.133 335.997 218.667 334.271 220.149C335.372 218.022 337.817 214.687 338.425 212.689C341.2 203.568 344.256 183.392 340.875 174.734Z"/><path fill="#1C1F1D" transform="matrix(0.0625 0 0 0.0625 0 -0.00012207)" d="M340.875 174.734C340.349 173.148 338.992 172.088 338.819 171.012C339.367 170.682 339.058 170.777 339.819 170.924C340.788 171.693 341.715 173.018 341.969 174.24C341.23 174.21 341.602 174.144 340.875 174.734Z"/><path fill="#EDBA5E" transform="matrix(0.0625 0 0 0.0625 0 -0.00012207)" d="M168.611 211.366L168.9 211.198C169.327 212.71 169.603 213.954 170.334 215.35C172.678 224.592 183.69 225.734 191.39 226.854L196.516 227.102L196.624 227.406L195.854 227.797C196.175 228.371 198.502 229.594 199.116 229.833C204.393 230.305 208.25 230.292 213.579 230.255L213.951 230.393C216.205 231.218 218.097 231.325 220.479 231.677C219.652 231.843 219.063 231.779 218.228 231.749L218.236 231.891C220.102 232.315 220.961 232.132 222.579 232.95C227.867 235.625 235.465 240.568 237.25 246.558C237.845 248.553 238.212 250.875 238.292 252.998C238.544 254.637 237.222 256.397 237.906 257.895C238.221 258.585 238.676 260.101 238.195 260.638C236.638 262.376 231.946 263.383 229.611 264.095C229.08 264.257 229.228 263.709 228.341 263.88C229.481 265.108 236.601 266.419 237.812 267.379L237.729 267.565L231.695 265.854C227.671 264.461 224.665 262.498 220.865 260.725C220.662 260.024 220.601 260.011 220.244 259.352C218.873 258.466 218.233 258.955 217.045 259.867C208.983 261.076 218.472 270.333 223.558 271.153C225.084 271.855 227.466 273.121 228.942 273.535C227.481 273.943 226.008 272.752 224.438 272.06L224.111 272.189L224.573 273.138C224.054 274.391 222.324 275.907 220.984 276.371C218.031 277.394 216.026 278.963 212.853 279.436C210.614 280.071 208.597 281.057 206.3 281.446C201.097 282.328 196.028 283.83 190.67 283.683C185.195 283.531 180.977 280.645 177.297 276.819C174.653 274.071 173.958 270.795 172.937 267.274C168.529 254.147 169.617 241.013 170.238 227.457C170.354 224.917 169.937 222.362 170.011 219.673L169.764 219.602C168.404 221.228 168.764 240.499 168.171 244.676L167.927 244.479C167.164 238.374 167.213 226.644 167.678 220.263C167.77 219.006 168.846 218.522 169.883 217.849C170.823 215.901 168.781 214.256 168.611 211.366Z"/><path fill="#E3972D" transform="matrix(0.0625 0 0 0.0625 0 -0.00012207)" d="M191.39 226.854L196.516 227.102L196.624 227.406L195.854 227.797C196.175 228.371 198.502 229.594 199.116 229.833C197.609 229.761 194.856 229.313 193.417 228.818C191.917 228.301 191.95 228.077 191.39 226.854Z"/><path fill="#8B4203" transform="matrix(0.0625 0 0 0.0625 0 -0.00012207)" d="M347.193 191.836C348.116 190.573 348.138 189.42 349.148 187.887C349.936 187.457 349.539 187.495 350.371 187.725C349.845 188.85 349.593 188.875 349.76 189.862C350.208 189.509 350.395 189.317 350.795 188.907C351.891 189.236 352.538 190.455 353.089 191.397C357.519 198.965 356.804 205.463 356.672 213.951C356.393 231.93 355.692 250.537 350.628 267.91C348.365 275.672 342.74 287.397 337.116 293.563C337.099 293.554 337.083 293.539 337.064 293.536C335.746 293.39 332.414 299.126 330.617 299.854L330.326 299.408L330.742 298.99L330.635 298.84C329.218 298.877 329.076 297.998 328.381 296.924C327.924 296.828 327.491 296.835 327.025 296.851L327.521 294.149L327.245 293.912C326.837 294.211 326.54 294.424 326.109 294.688L326.288 293.923C325.3 292.802 325.768 294.244 324.481 294.115C324.54 293.202 324.632 293.476 324.354 292.687L323.398 292.891C323.32 292.515 323.343 292.695 323.324 292.245L323.313 291.898C322.564 291.9 322.32 292.009 321.591 292.179C321.548 291.562 321.565 291.618 321.78 291.053C320.735 289.21 320.774 288.323 319.185 287.487C319.352 286.764 319.503 286.036 319.637 285.306C317.404 282.33 319.581 280.828 319.974 277.393C320.283 274.69 320.248 271.957 320.675 269.294C320.937 267.656 322.053 266.001 322.57 264.444C322.07 263.218 322.629 261.827 322.94 260.547C325.106 249.475 325.479 236.778 314.156 230.928C304.67 226.027 297.35 229.41 288.492 226.196L288.704 225.843C298.468 228.491 326.008 228.299 335.474 223.587C345.022 218.834 344.486 201.366 347.193 191.836Z"/><defs><linearGradient id="gradient_13" gradientUnits="userSpaceOnUse" x1="257.72873" y1="316.53433" x2="241.60561" y2="355.15289"><stop offset="0" stop-color="#964602"/><stop offset="1" stop-color="#D48C29"/></linearGradient></defs><path fill="url(#gradient_13)" transform="matrix(0.0625 0 0 0.0625 0 -0.00012207)" d="M204.688 316.382C207.239 316.32 211.264 318.394 213.935 319.104C236.639 325.14 261.573 326.831 284.776 322.878C286.902 322.516 289.618 321.757 291.554 321.664C291.439 321.742 291.327 321.824 291.21 321.899C289.689 322.874 276.453 324.887 274.207 324.908C273.775 324.913 273.939 324.886 273.544 325.08C276.674 326.119 278.29 325.702 281 326.189C282.633 326.482 285.756 330.899 286.601 332.514C287.669 334.557 288.921 339.773 289.853 341.107C289.301 341.842 284.954 345.187 283.905 345.882C284.382 345.659 286.248 344.673 286.559 344.782C285.241 345.896 282.605 347.586 281.672 348.459C278.116 350.898 274.784 353.704 271.414 356.381C269.854 357.621 267.148 360.07 265.525 360.95C264.146 360.93 262.648 362.489 261.731 363.424C261.088 364.132 259.509 365.5 258.702 366.007C257.562 366.855 256.489 367.824 255.098 368.056C254.252 367.394 247.652 363.498 246.312 362.67C244.927 361.295 240.116 357.723 238.345 356.298C229.679 349.323 220.81 343.011 211.78 336.549C210.436 335.587 203.2 330.831 202.641 330.119L202.556 329.656L201.269 328.836C200.385 326.945 202.1 319.897 202.836 317.778C203.284 317.327 203.75 317.232 204.355 317.016C205.095 317.265 205.22 317.331 206.027 317.194L204.688 316.382Z"/><path fill="#8B4203" transform="matrix(0.0625 0 0 0.0625 0 -0.00012207)" d="M202.641 330.119L202.556 329.656L201.269 328.836C200.385 326.945 202.1 319.897 202.836 317.778C203.284 317.327 203.75 317.232 204.355 317.016C205.095 317.265 205.22 317.331 206.027 317.194C210.325 318.065 214.912 320.438 219.308 321.23C220.522 321.448 221.784 321.626 222.917 322.098L223.141 322.485C220.682 325.043 216.55 322.137 214.073 322.846C212.422 323.318 211.574 327.17 211.852 328.569C212.047 332.502 215.131 334.135 217.028 336.685C217.293 337.639 223.315 342.307 224.583 343.33C234.119 351.026 244.078 358.341 254.595 364.643C255.912 365.432 257.275 365.54 258.702 366.007C257.562 366.855 256.489 367.824 255.098 368.056C254.252 367.394 247.652 363.498 246.312 362.67C244.927 361.295 240.116 357.723 238.345 356.298C229.679 349.323 220.81 343.011 211.78 336.549C210.436 335.587 203.2 330.831 202.641 330.119Z"/><path fill="#A85607" transform="matrix(0.0625 0 0 0.0625 0 -0.00012207)" d="M217.028 336.685C218.001 336.886 227.957 345.641 230.07 346.764C232.383 347.992 233.298 347.982 235.797 348.573C242.46 352.678 249.193 357.427 256.223 360.888C256.87 361.207 261.824 363.435 261.731 363.424C261.088 364.132 259.509 365.5 258.702 366.007C257.275 365.54 255.912 365.432 254.595 364.643C244.078 358.341 234.119 351.026 224.583 343.33C223.315 342.307 217.293 337.639 217.028 336.685Z"/><path fill="#D48317" transform="matrix(0.0625 0 0 0.0625 0 -0.00012207)" d="M238.424 338.48C239.191 338.629 240.303 338.585 241.153 338.815C243.941 339.567 246.119 341.75 248.198 343.603C248.703 345.555 250.515 348.091 250.046 349.488C249.317 350.285 249.616 350.034 248.411 350.325C247.394 350.165 246.284 349.967 245.363 349.489C243.013 348.27 234.573 343.489 236.553 340.109C237.596 339.577 237.712 339.421 238.424 338.48Z"/><defs><linearGradient id="gradient_14" gradientUnits="userSpaceOnUse" x1="267.06772" y1="279.40421" x2="252.66603" y2="251.05589"><stop offset="0" stop-color="#35170A"/><stop offset="1" stop-color="#6C412F"/></linearGradient></defs><path fill="url(#gradient_14)" transform="matrix(0.0625 0 0 0.0625 0 -0.00012207)" d="M217.045 259.867C218.233 258.955 218.873 258.466 220.244 259.352C220.601 260.011 220.662 260.024 220.865 260.725C224.665 262.498 227.671 264.461 231.695 265.854L237.729 267.565C248.592 271.935 271.53 269.744 282.268 265.214C285.354 263.912 294.511 257.679 295.993 262.311C297.555 267.194 278.901 273.085 275.866 273.925C271.841 275.039 268.213 274.967 264.723 275.744L266.492 275.874C265.597 276.15 264.054 276.105 263.079 276.201C255.546 276.943 248.011 276.116 240.543 275.133C238.999 274.929 236.841 275.879 235.285 275.544C233.391 275.135 231.057 274.262 229.286 273.434L228.942 273.535C227.466 273.121 225.084 271.855 223.558 271.153C218.472 270.333 208.983 261.076 217.045 259.867Z"/><path fill="#E3972D" transform="matrix(0.0625 0 0 0.0625 0 -0.00012207)" d="M223.558 271.153C218.472 270.333 208.983 261.076 217.045 259.867C215.88 261.082 215.193 262.333 216.529 263.914C218.885 266.505 221.113 267.192 222.01 268.083C222.59 268.348 225.249 269.582 225.662 269.654C228.927 271.298 231.574 272.133 235.059 273.266L236.537 273.691C245.733 276.048 255.286 276.315 264.723 275.744L266.492 275.874C265.597 276.15 264.054 276.105 263.079 276.201C255.546 276.943 248.011 276.116 240.543 275.133C238.999 274.929 236.841 275.879 235.285 275.544C233.391 275.135 231.057 274.262 229.286 273.434L228.942 273.535C227.466 273.121 225.084 271.855 223.558 271.153Z"/><path fill="#380B04" transform="matrix(0.0625 0 0 0.0625 0 -0.00012207)" d="M217.045 259.867C218.233 258.955 218.873 258.466 220.244 259.352C220.601 260.011 220.662 260.024 220.865 260.725C224.665 262.498 227.671 264.461 231.695 265.854C231.472 266.415 231.619 266.265 231.21 266.628C227.54 265.39 225.514 263.929 222.243 262.643L221.605 262.54C218.683 265.863 225.264 268.493 227.328 269.335C226.556 269.762 226.521 269.697 225.662 269.654C225.249 269.582 222.59 268.348 222.01 268.083C221.113 267.192 218.885 266.505 216.529 263.914C215.193 262.333 215.88 261.082 217.045 259.867Z"/><path fill="#E4B323" transform="matrix(0.0625 0 0 0.0625 0 -0.00012207)" d="M217.045 259.867C218.233 258.955 218.873 258.466 220.244 259.352C220.601 260.011 220.662 260.024 220.865 260.725C218.399 261.329 217.888 261.729 216.529 263.914C215.193 262.333 215.88 261.082 217.045 259.867Z"/><path fill="#77594A" transform="matrix(0.0625 0 0 0.0625 0 -0.00012207)" d="M222.243 262.643C225.514 263.929 227.54 265.39 231.21 266.628C231.54 267.07 231.481 266.841 231.483 267.283C229.689 268.442 223.877 266.176 222.582 264.536C222.022 263.827 222.155 263.441 222.243 262.643Z"/><path fill="#380B04" transform="matrix(0.0625 0 0 0.0625 0 -0.00012207)" d="M227.328 269.335L227.63 269.47C230.118 270.558 233.499 271.434 236.117 272.504C235.639 272.551 235.207 272.599 234.732 272.666C235.22 272.784 237.041 273.132 237.276 273.443L236.537 273.691L235.059 273.266C231.574 272.133 228.927 271.298 225.662 269.654C226.521 269.697 226.556 269.762 227.328 269.335Z"/><path fill="#A85607" transform="matrix(0.0625 0 0 0.0625 0 -0.00012207)" d="M161.674 194.724C162.187 193.071 161.93 190.084 163.332 189.517C163.898 190.666 164.452 191.743 164.921 192.938C165.481 194.798 165.771 195.894 166.119 197.799L166.404 199.926C167.181 203.857 168.085 207.379 168.9 211.198L168.611 211.366C167.87 209.035 167.206 206.611 166.64 204.246C166.702 206.489 166.935 210.373 167.304 212.495C167.249 212.175 166.29 217.497 166.305 217.442L165.981 217.404C165.723 215.308 166.187 209.761 165.232 208.418C165.052 209.139 164.906 209.666 164.655 210.362C163.833 212.642 165.027 216.222 164.829 218.442C164.181 225.727 164.423 232.905 164.346 240.199L164.292 239.489C164.324 243.089 164.211 246.765 164.537 250.345C164.482 252.086 164.068 253.213 164.282 254.972C164.582 257.429 164.46 259.956 164.922 262.424C165.18 263.804 164.424 265.222 165.273 266.387C166.055 264.711 164.749 258.642 165.741 256.607C165.872 256.338 165.916 255.598 165.942 255.288C166.79 256.366 166.431 260.255 166.583 261.883C166.927 265.567 167.347 269.171 168.023 272.813C168.359 274.618 170.552 278.163 170.287 279.666L170.132 279.189C169.555 277.45 168.801 275.962 168.201 274.032C167.684 272.368 167.141 269.914 166.598 268.42C165.461 271.823 167.21 275.052 167.564 278.511C167.592 278.777 167.052 279.125 166.912 279.211C167.078 279.994 167.032 279.737 167.545 280.454L167.867 280.53L168.174 279.927C168.528 281.561 167.725 280.368 167.984 281.149C169.044 284.331 172.177 288.651 173.775 291.428C174.627 292.908 179.506 297.502 179.285 298.535C177.952 297.766 174.031 292.37 173.01 290.93C162.919 276.699 159.297 261.734 158.025 244.61C158.901 233.49 159.316 222.287 160.035 211.127C160.368 205.972 161.533 199.383 161.674 194.724Z"/><path fill="#C3691B" transform="matrix(0.0625 0 0 0.0625 0 -0.00012207)" d="M164.921 192.938C165.481 194.798 165.771 195.894 166.119 197.799L166.404 199.926L165.866 200.429L165.348 200.006L164.905 200.813L164.553 200.692C164.073 199.199 163.968 194.22 164.921 192.938Z"/><path fill="#8B4203" transform="matrix(0.0625 0 0 0.0625 0 -0.00012207)" d="M267.511 192.473C268.039 194.638 268.602 202.704 268.657 205.186C270.159 204.618 270.569 204.632 272.114 204.546C272.48 205.032 272.303 204.665 272.368 205.107C273.168 210.576 276.311 218.054 280.568 221.728C283.002 223.829 285.779 224.962 288.704 225.843L288.492 226.196C287.797 225.981 287.098 225.779 286.394 225.591C285.308 225.307 283.902 225.516 282.967 225.967C275.027 229.796 278.301 239.815 269.823 244.749C269.471 244.652 269.12 244.549 268.771 244.442C266.558 244.741 266.188 246.696 263.964 246.098C267.151 245.276 268.285 244.109 268.94 240.732C269.748 236.564 269.408 232.284 269.262 228.074C269.068 220.408 268.704 212.747 268.169 205.098C267.988 202.081 267.348 195.199 267.511 192.473Z"/><path fill="#EDBA5E" transform="matrix(0.0625 0 0 0.0625 0 -0.00012207)" d="M245.252 194.795C245.513 194.295 245.961 193.303 246.111 192.758L246.034 193.234L246.087 193.093C246.65 193.608 247.122 193.599 247.842 193.72C249.242 194.887 250.744 199.041 250.907 201.013C251.205 204.589 249.686 207.738 249.633 210.951C249.473 220.638 250.201 230.253 249.159 239.927L248.598 240.307C247.466 240.38 246.098 240.627 245.153 239.869C243.569 238.597 244.698 218.673 244.503 215.528L244.48 215.207C244.478 212.167 244.63 208.912 244.726 205.855C244.772 202.564 244.899 198.021 245.252 194.795Z"/><path fill="#EFC750" transform="matrix(0.0625 0 0 0.0625 0 -0.00012207)" d="M244.726 205.855C245.806 208.601 245.745 216.532 245.837 219.715C246.018 226.006 243.942 233.242 246 239.513C246.975 239.672 248.353 239.752 249.159 239.927L248.598 240.307C247.466 240.38 246.098 240.627 245.153 239.869C243.569 238.597 244.698 218.673 244.503 215.528L244.48 215.207C244.478 212.167 244.63 208.912 244.726 205.855Z"/><defs><linearGradient id="gradient_15" gradientUnits="userSpaceOnUse" x1="132.82761" y1="274.09857" x2="322.41321" y2="111.52855"><stop offset="0" stop-color="#4C0702"/><stop offset="1" stop-color="#882801"/></linearGradient></defs><path fill="url(#gradient_15)" transform="matrix(0.0625 0 0 0.0625 0 -0.00012207)" d="M163.916 148.289C176.3 125.081 191.857 108.646 217.45 99.9144C239.245 92.4784 258.688 92.4777 281.3 95.5064C286.415 96.6292 291.957 97.7774 296.842 99.5446C308.631 103.81 321.666 110.697 330.235 120.028C336.262 126.59 346.04 139.792 348.904 148.195L348.69 148.625C350.048 151.972 351.98 155.797 352.659 159.266C353.207 162.068 356.823 166.036 356.309 168.485L356.056 168.598C355.56 165.943 355.776 164.982 353.399 163.276C351.152 161.663 348.637 161.773 348.131 158.783C348.079 158.48 347.815 158.06 347.649 157.788C347.27 159.405 350.465 161.702 348.035 162.187C343.559 160.673 330.158 160.753 325.156 160.27C323.841 160.324 322.394 160.29 321.073 160.251C314.046 160.042 306.956 160.213 299.935 159.97L227.565 159.9C218.041 159.978 207.813 160.23 198.345 160.058C192.689 160.357 186.11 160.251 180.379 160.326L180.082 160.357C177.834 160.576 169.988 160.28 168.789 160.881C170.293 161.216 178.689 160.894 179.12 161.451C178.227 161.547 176.933 161.597 176.201 162.016C173.518 163.55 167.587 162.382 164.976 163.374C154.535 161.026 156.37 176.662 158.38 182.377C158.9 183.249 159.539 183.991 159.949 184.678C160.197 184.987 161.395 186.477 161.537 186.769C162.101 187.546 162.997 188.666 163.332 189.517C161.93 190.084 162.187 193.071 161.674 194.724C161.533 199.383 160.368 205.972 160.035 211.127C159.316 222.287 158.901 233.49 158.025 244.61C159.297 261.734 162.919 276.699 173.01 290.93C174.031 292.37 177.952 297.766 179.285 298.535C185.381 305.157 193.395 311.121 201.505 315.095C202.116 315.395 204.072 316.295 204.688 316.382L206.027 317.194C205.22 317.331 205.095 317.265 204.355 317.016C203.75 317.232 203.284 317.327 202.836 317.778C202.1 319.897 200.385 326.945 201.269 328.836L202.556 329.656L202.641 330.119C199.193 328.186 193.038 324.045 189.399 321.893C176.118 314.041 155.253 303.35 146.738 290.495C132.658 269.242 143.211 233.112 148.304 210.146C149.577 204.405 150.629 198.717 151.741 192.99C152.519 191.263 154.435 180.41 154.546 177.937C154.608 176.565 154.277 171.048 154.7 169.598C155.541 166.144 158.168 162.864 159.372 159.728C160.859 155.857 162.322 152.117 163.916 148.289Z"/><defs><linearGradient id="gradient_16" gradientUnits="userSpaceOnUse" x1="287.6676" y1="104.74165" x2="211.40918" y2="192.61526"><stop offset="0" stop-color="#C77D0A"/><stop offset="1" stop-color="#F2C05D"/></linearGradient></defs><path fill="url(#gradient_16)" transform="matrix(0.0625 0 0 0.0625 0 -0.00012207)" d="M248.751 107.25C249.631 106.468 250.36 107.054 250.946 106.944C254.593 106.263 257.915 105.814 261.727 105.849C277.05 105.989 297.984 110.744 307.934 123.151C314.21 130.975 314.388 150.315 310.948 159.517C309.609 159.846 302.585 159.704 299.935 159.97L227.565 159.9C218.041 159.978 207.813 160.23 198.345 160.058C192.689 160.357 186.11 160.251 180.379 160.326L178.311 160.313C176.94 160.361 173.755 160.393 172.543 160.074C172.335 159.413 172.323 158.659 172.593 158.016C173.779 155.189 174.633 151.211 175.935 148.645C177.202 146.294 178.768 144.722 180.261 142.512C186.047 133.949 193.759 126.966 202.176 121.074C201.92 121.254 203.705 120.577 203.459 120.668L203.747 121.112C202.12 123.306 200.195 123.237 200.131 125.404L200.378 125.754C201.308 125.115 202.912 121.741 205.363 122.933C206.977 122.812 210.388 120.035 212.581 119.166C213.954 118.026 216.555 116.04 218.277 115.658C219.395 116.218 219.331 116.304 220.438 115.9C220.071 115.735 219.872 115.659 219.48 115.521L219.089 115.386C220.264 113.547 223.78 114.699 224.715 114.495C228.265 113.646 231.296 111.448 234.793 110.377C238.602 109.21 242.866 109.353 246.621 107.897C247.236 107.659 248.426 108.18 249.167 107.664L248.751 107.25Z"/><path fill="#EDBA5E" transform="matrix(0.0625 0 0 0.0625 0 -0.00012207)" d="M191.538 159.873C191.604 159.831 191.67 159.79 191.736 159.748C195.197 157.314 195.879 151.174 198.155 147.547C202.433 140.725 213.038 130.896 221.829 132.184C224.43 132.565 228.068 135.423 229.551 137.662C231.692 140.893 231.129 144.109 230.421 147.681C230.028 149.663 229.337 150.863 229.287 152.882C226.628 155.856 227.853 156.64 226.447 159.362C227.788 159.422 229.128 159.495 230.467 159.58C229.468 159.596 228.352 159.463 227.565 159.9C218.041 159.978 207.813 160.23 198.345 160.058C196.058 159.897 193.828 159.895 191.538 159.873Z"/><defs><linearGradient id="gradient_17" gradientUnits="userSpaceOnUse" x1="192.17949" y1="128.81165" x2="194.56438" y2="131.53906"><stop offset="0" stop-color="#903602"/><stop offset="1" stop-color="#AD5707"/></linearGradient></defs><path fill="url(#gradient_17)" transform="matrix(0.0625 0 0 0.0625 0 -0.00012207)" d="M205.363 122.933C206.977 122.812 210.388 120.035 212.581 119.166C212.418 119.54 212.135 120.202 211.798 120.422C209.138 122.156 202.772 127.933 200.465 129.188C200.207 128.892 200.306 129.06 200.174 128.681L199.861 128.794C199.584 129.552 199.282 130.848 198.741 131.196C198.762 130.592 198.777 130.292 198.749 129.688C197.691 130.293 193.958 135.962 190.171 138.185L189.896 137.613C188.09 138.493 189.115 140.222 186.168 140.419L186.185 140.714L187.149 140.867C186.605 141.605 185.708 141.222 185.646 141.432C185.366 142.39 185.769 142.49 184.994 143.322L183.607 143.44L183.395 144.088C183.845 144.312 183.603 144.219 184.126 144.356C182.935 145.101 182.804 144.678 182.391 146.157C182.046 147.388 182.618 149.005 182.259 150.048C181.368 152.636 178.884 153.569 177.853 156.054L177.727 156.368C177.283 156.676 176.856 156.969 176.424 157.294L176.404 157.58C176.345 158.325 176.397 158.679 175.951 159.268C174.504 159.808 174.436 158.705 173.423 159.309L173.539 159.706C175.095 159.972 177.928 159.37 178.624 159.751L178.311 160.313C176.94 160.361 173.755 160.393 172.543 160.074C172.335 159.413 172.323 158.659 172.593 158.016C173.779 155.189 174.633 151.211 175.935 148.645C177.202 146.294 178.768 144.722 180.261 142.512C186.047 133.949 193.759 126.966 202.176 121.074C201.92 121.254 203.705 120.577 203.459 120.668L203.747 121.112C202.12 123.306 200.195 123.237 200.131 125.404L200.378 125.754C201.308 125.115 202.912 121.741 205.363 122.933Z"/><path fill="#8B4203" transform="matrix(0.0625 0 0 0.0625 0 -0.00012207)" d="M203.459 120.668C204.169 119.729 206.992 118.259 208.171 117.501C220.235 109.993 235.487 105.091 249.45 102.77C264.136 100.583 278.756 102.341 292.937 106.464C299.078 108.249 302.785 109.895 308.307 113.013C315.749 117.215 322.185 122.517 327.021 129.64C328.792 132.247 329.984 135.524 331.983 138.065C333.299 139.861 332.586 141.149 334.345 143.072C334.47 144.264 334.446 147.45 333.721 148.403C333.218 149.064 332.483 148.43 332.101 149.224C331.696 150.063 331.281 150.93 330.318 151.057C326.792 151.522 325.92 156.002 323.926 158.032C323.899 158.611 323.868 158.996 323.902 159.58C324.976 160.037 326.178 159.981 327.381 160.072L325.156 160.27C323.841 160.324 322.394 160.29 321.073 160.251C314.046 160.042 306.956 160.213 299.935 159.97C302.585 159.704 309.609 159.846 310.948 159.517C314.388 150.315 314.21 130.975 307.934 123.151C297.984 110.744 277.05 105.989 261.727 105.849C257.915 105.814 254.593 106.263 250.946 106.944C250.36 107.054 249.631 106.468 248.751 107.25L249.167 107.664C248.426 108.18 247.236 107.659 246.621 107.897C242.866 109.353 238.602 109.21 234.793 110.377C231.296 111.448 228.265 113.646 224.715 114.495C223.78 114.699 220.264 113.547 219.089 115.386L219.48 115.521C219.872 115.659 220.071 115.735 220.438 115.9C219.331 116.304 219.395 116.218 218.277 115.658C216.555 116.04 213.954 118.026 212.581 119.166C210.388 120.035 206.977 122.812 205.363 122.933C202.912 121.741 201.308 125.115 200.378 125.754L200.131 125.404C200.195 123.237 202.12 123.306 203.747 121.112L203.459 120.668Z"/><path fill="#A85607" transform="matrix(0.0625 0 0 0.0625 0 -0.00012207)" d="M205.363 122.933C206.337 120.546 214.969 115.892 217.506 114.734C222.727 112.352 243.155 105.131 247.912 107.12C248.288 107.277 248.096 107.274 248.516 107.27C248.595 107.27 248.673 107.257 248.751 107.25L249.167 107.664C248.426 108.18 247.236 107.659 246.621 107.897C242.866 109.353 238.602 109.21 234.793 110.377C231.296 111.448 228.265 113.646 224.715 114.495C223.78 114.699 220.264 113.547 219.089 115.386L219.48 115.521C219.872 115.659 220.071 115.735 220.438 115.9C219.331 116.304 219.395 116.218 218.277 115.658C216.555 116.04 213.954 118.026 212.581 119.166C210.388 120.035 206.977 122.812 205.363 122.933Z"/><path fill="#8C2403" transform="matrix(0.0625 0 0 0.0625 0 -0.00012207)" d="M160.339 194.393C160.981 194.728 160.983 194.819 161.674 194.724C161.533 199.383 160.368 205.972 160.035 211.127C159.316 222.287 158.901 233.49 158.025 244.61C157.673 243.304 157.533 240.254 157.396 238.795C156.666 230.977 156.807 223.261 156.993 215.422C157.86 213.27 157.025 207.907 157.96 206.286C159.722 203.232 159.895 198.045 160.339 194.393Z"/><path fill="#761D02" transform="matrix(0.0625 0 0 0.0625 0 -0.00012207)" d="M160.851 187.936C160.976 187.074 160.811 187.479 161.537 186.769C162.101 187.546 162.997 188.666 163.332 189.517C161.93 190.084 162.187 193.071 161.674 194.724C160.983 194.819 160.981 194.728 160.339 194.393C159.895 198.045 159.722 203.232 157.96 206.286C157.025 207.907 157.86 213.27 156.993 215.422C156.813 213.329 157.023 209.666 157.026 207.354C158.243 201.789 158.589 192.957 160.851 187.936Z"/><path fill="#8C2403" transform="matrix(0.0625 0 0 0.0625 0 -0.00012207)" d="M160.851 187.936C160.976 187.074 160.811 187.479 161.537 186.769C162.101 187.546 162.997 188.666 163.332 189.517C161.93 190.084 162.187 193.071 161.674 194.724C160.983 194.819 160.981 194.728 160.339 194.393C160.294 191.552 160.875 189.881 160.851 187.936Z"/><path fill="#620D01" transform="matrix(0.0625 0 0 0.0625 0 -0.00012207)" d="M158.38 182.377C158.9 183.249 159.539 183.991 159.949 184.678C160.197 184.987 161.395 186.477 161.537 186.769C160.811 187.479 160.976 187.074 160.851 187.936C158.589 192.957 158.243 201.789 157.026 207.354C156.616 202.133 157.778 198.875 158.08 194.276C158.283 191.188 158.318 185.708 158.38 182.377Z"/><path fill="#E4B323" transform="matrix(0.0625 0 0 0.0625 0 -0.00012207)" d="M258.659 383.588C312.159 385.597 336.972 448.868 297.403 485.754C284.979 497.336 267.988 502.481 251.253 501.45C246.296 501.137 241.001 500.544 236.298 498.825C235.874 498.446 232.852 497.353 232.087 497.02C226.755 494.702 221.133 491.645 216.676 487.901C216.576 486.885 209.659 481.448 208.757 479.859C207.432 477.524 207.461 479.023 208.72 476.116C208.546 475.878 208.373 475.641 208.199 475.403C208.747 474.067 209.588 472.729 209.736 471.278C210.026 468.437 209.423 465.662 209.172 462.845C209.031 461.269 208.817 460.015 208.224 458.547C207.537 456.847 206.544 455.277 205.947 453.56C205.71 452.88 206.408 452.659 206.351 452.018C206.65 450.617 205.308 447.396 205.266 446.965C204.673 440.915 206.571 433.986 207.488 427.989C207.784 426.054 207.705 423.289 208.026 421.663C208.123 421.171 210.712 417.858 211.13 416.962C212.504 414.016 213.344 410.837 215.131 408.085C216.143 406.525 218.635 404.395 219.637 402.844C219.887 402.458 220.6 399.41 220.997 398.536C221.981 396.371 223.198 394.634 224.352 392.561L223.833 392.754C226.769 390.995 230.332 389.332 233.526 388.092L233.557 387.783C240.854 384.393 250.717 383.682 258.659 383.588Z"/><path fill="#D48317" transform="matrix(0.0625 0 0 0.0625 0 -0.00012207)" d="M237.876 484.916C222.342 477.893 212.21 465.745 209.614 448.605C204.847 417.134 235.84 389.718 266.601 397.607C271.906 397.253 283.955 405.085 287.841 408.67C290.583 411.201 292.389 414.184 294.848 416.6C295.635 416.79 295.992 417.028 296.635 416.817L296.468 416.407L296.755 416.451C304.764 427.714 306.566 441.905 302.958 455.09C301.983 459.014 298.253 468.047 295.456 470.877L295.28 470.816L295.637 469.875C295.11 470.162 292.681 471.571 292.32 471.658L292.055 471.874C291.063 472.695 289.948 474.094 289.019 475.027C277.31 486.777 258.157 491.768 242.29 486.614C241.174 486.252 238.769 485.584 237.876 484.916Z"/><defs><linearGradient id="gradient_18" gradientUnits="userSpaceOnUse" x1="247.77057" y1="440.3562" x2="210.54773" y2="433.24997"><stop offset="0" stop-color="#9E4500"/><stop offset="1" stop-color="#813004"/></linearGradient></defs><path fill="url(#gradient_18)" transform="matrix(0.0625 0 0 0.0625 0 -0.00012207)" d="M237.876 484.916C222.342 477.893 212.21 465.745 209.614 448.605C204.847 417.134 235.84 389.718 266.601 397.607C264.137 398.076 259.243 396.226 256.131 396.889C256.891 398.222 262.616 397.624 264.766 398.409C263.92 398.603 261.21 398.106 259.994 398.044C257.825 397.948 255.654 397.936 253.484 398.005C240.29 398.414 227.874 405.559 220.137 416.146C220.516 415.628 213.675 426.866 213.974 425.927C207.184 447.251 213.455 469.611 233.195 481.257C234.033 481.747 234.88 482.223 235.736 482.682L235.11 483.133C235.809 484.167 237.112 483.57 237.876 484.916Z"/><path fill="#EFC750" transform="matrix(0.0625 0 0 0.0625 0 -0.00012207)" d="M294.848 416.6C295.635 416.79 295.992 417.028 296.635 416.817L296.468 416.407L296.755 416.451C304.764 427.714 306.566 441.905 302.958 455.09C301.983 459.014 298.253 468.047 295.456 470.877L295.28 470.816L295.637 469.875C295.11 470.162 292.681 471.571 292.32 471.658C296.879 466.011 300.376 459.338 301.947 452.227C304.144 439.261 302.089 427.681 294.848 416.6Z"/><path fill="#030971" transform="matrix(0.0625 0 0 0.0625 0 -0.00012207)" d="M255.759 414.53C255.678 412.485 255.386 410.953 256.698 409.195C258.471 406.818 262.001 406.759 264.158 408.641C265.581 409.882 265.453 412.003 265.534 413.761C268.447 414.39 269.508 414.814 272.178 416.142C275.301 417.912 278.374 420.724 279.303 424.329C282.451 431.318 276.45 437 271.277 440.499C280.113 445.12 286.17 454.1 279.174 463.892C277.081 466.822 272.388 469.134 268.812 469.499C268.872 473.169 269.453 477.35 264.559 477.521C258.952 477.718 258.023 474.197 257.963 469.717C256.01 469.761 253.652 469.608 251.671 469.531C251.712 471.404 252.099 474.048 250.628 475.488C248.58 477.494 244.946 477.357 242.95 475.304C241.206 473.509 241.378 472.013 241.409 469.68C238.011 468.941 237.326 468.772 234.91 466.294C234.657 465.514 234.485 464.711 234.397 463.896C233.932 459.64 233.917 420.497 234.74 418.354C235.763 415.689 239.481 416.394 240.455 415.022C240.974 414.29 240.49 411.494 241.989 409.708C242.626 408.949 243.435 408.54 244.42 408.455C245.777 408.339 247.704 408.755 248.733 409.697C250.049 410.902 249.838 413.04 249.877 414.666C252.028 414.493 253.59 414.497 255.759 414.53Z"/><defs><linearGradient id="gradient_19" gradientUnits="userSpaceOnUse" x1="249.41846" y1="454.03201" x2="262.62286" y2="455.26871"><stop offset="0" stop-color="#182A7A"/><stop offset="1" stop-color="#4587A7"/></linearGradient></defs><path fill="url(#gradient_19)" transform="matrix(0.0625 0 0 0.0625 0 -0.00012207)" d="M261.959 449.902C264.97 449.879 269.739 449.424 271.953 451.545C272.961 452.51 273.544 453.836 273.574 455.231C273.65 460.92 266.147 459.839 262.377 459.774C259.401 459.745 250.156 459.834 247.7 459.37C249.736 457.696 252.158 452.823 253.598 450.279L253.874 450.103C256.568 449.991 259.263 449.924 261.959 449.902Z"/><defs><linearGradient id="gradient_20" gradientUnits="userSpaceOnUse" x1="262.45996" y1="454.77609" x2="272.99268" y2="454.68179"><stop offset="0" stop-color="#458CAA"/><stop offset="1" stop-color="#67D8DC"/></linearGradient></defs><path fill="url(#gradient_20)" transform="matrix(0.0625 0 0 0.0625 0 -0.00012207)" d="M261.959 449.902C264.97 449.879 269.739 449.424 271.953 451.545C272.961 452.51 273.544 453.836 273.574 455.231C273.65 460.92 266.147 459.839 262.377 459.774C262.336 457.964 263.008 451.211 261.959 449.902Z"/><defs><linearGradient id="gradient_21" gradientUnits="userSpaceOnUse" x1="242.95143" y1="425.81348" x2="250.60948" y2="437.54932"><stop offset="0" stop-color="#29368C"/><stop offset="1" stop-color="#4E81A1"/></linearGradient></defs><path fill="url(#gradient_21)" transform="matrix(0.0625 0 0 0.0625 0 -0.00012207)" d="M240.148 428.808C240.281 424.036 245.239 422.593 248.079 425.246C250.681 428.498 253.392 433.072 255.808 436.583C256.935 438.174 257.468 438.943 258.16 440.839C257.548 442.808 257.305 443.449 256.151 445.25C250.884 445.343 250.631 446.225 247.399 441.426L247.205 441.185C245.308 437.558 241.337 432.274 240.148 428.808Z"/><path fill="#4B8CA5" transform="matrix(0.0625 0 0 0.0625 0 -0.00012207)" d="M250.696 436.239C252.721 436.232 253.867 436.744 255.808 436.583C256.935 438.174 257.468 438.943 258.16 440.839C257.548 442.808 257.305 443.449 256.151 445.25C250.884 445.343 250.631 446.225 247.399 441.426C248.382 438.752 248.731 438.295 250.696 436.239Z"/><path fill="#29398C" transform="matrix(0.0625 0 0 0.0625 0 -0.00012207)" d="M240.148 428.808C240.281 424.036 245.239 422.593 248.079 425.246C244.749 425.482 243.505 425.694 240.708 427.695L240.148 428.808Z"/><path fill="#4B8CA5" transform="matrix(0.0625 0 0 0.0625 0 -0.00012207)" d="M247.205 441.185L247.399 441.426C250.631 446.225 250.884 445.343 256.151 445.25C255.495 446.892 254.659 448.512 253.874 450.103L253.598 450.279C252.158 452.823 249.736 457.696 247.7 459.37C245.845 459.744 244.119 459.945 242.373 458.908C241.374 458.311 240.665 457.327 240.417 456.19C239.88 453.815 240.96 452.037 242.088 450.106C243.402 447.896 245.981 442.921 247.205 441.185Z"/><defs><linearGradient id="gradient_22" gradientUnits="userSpaceOnUse" x1="251.88788" y1="443.58487" x2="245.80692" y2="451.62338"><stop offset="0" stop-color="#294584"/><stop offset="1" stop-color="#33639B"/></linearGradient></defs><path fill="url(#gradient_22)" transform="matrix(0.0625 0 0 0.0625 0 -0.00012207)" d="M247.205 441.185L247.399 441.426C250.631 446.225 250.884 445.343 256.151 445.25C255.495 446.892 254.659 448.512 253.874 450.103L253.598 450.279C251.516 449.396 245.244 451.129 242.088 450.106C243.402 447.896 245.981 442.921 247.205 441.185Z"/><defs><linearGradient id="gradient_23" gradientUnits="userSpaceOnUse" x1="262.26318" y1="427.37857" x2="271.01123" y2="427.24716"><stop offset="0" stop-color="#1D498F"/><stop offset="1" stop-color="#3668A5"/></linearGradient></defs><path fill="url(#gradient_23)" transform="matrix(0.0625 0 0 0.0625 0 -0.00012207)" d="M264.988 422.867C269.345 422.931 272.429 423.947 271.107 429.238C270.257 432.636 254.614 432.607 253.548 431.919L253.984 431.759C255.133 431.973 256.162 432.228 257.239 431.75L262.378 431.75C262.374 429.048 262.336 426.346 262.264 423.645C261.878 423.202 253.54 423.772 252.067 423.666L252.136 423.589C256.415 423.269 260.7 423.029 264.988 422.867Z"/><path fill="#EFC750" transform="matrix(0.0625 0 0 0.0625 0 -0.00012207)" d="M217.792 411.492L218.713 411.097C217.348 413.282 214.616 417.365 212.24 418.413L212.018 418.246C212.59 415.123 213.016 415.031 215.528 412.918C215.973 412.543 216.396 412.41 216.962 412.291C217.245 411.994 217.356 411.875 217.615 411.548L217.792 411.492Z"/><defs><linearGradient id="gradient_24" gradientUnits="userSpaceOnUse" x1="372.69638" y1="259.19446" x2="279.89594" y2="250.87419"><stop offset="0" stop-color="#390802"/><stop offset="1" stop-color="#681B00"/></linearGradient></defs><path fill="url(#gradient_24)" transform="matrix(0.0625 0 0 0.0625 0 -0.00012207)" d="M348.035 162.187C350.465 161.702 347.27 159.405 347.649 157.788C347.815 158.06 348.079 158.48 348.131 158.783C348.637 161.773 351.152 161.663 353.399 163.276C355.776 164.982 355.56 165.943 356.056 168.598L356.309 168.485C356.823 166.036 353.207 162.068 352.659 159.266C351.98 155.797 350.048 151.972 348.69 148.625L348.904 148.195C349.27 148.997 351.111 153.277 351.374 153.65C352.311 156.656 354.835 165.592 357.794 167.153L357.757 167.485C360.316 170.439 361.524 172.219 361.232 176.324C360.98 179.868 360.31 183.841 360.549 187.364C360.834 191.566 362.185 195.819 362.874 199.971C363.239 202.169 363.166 204.357 363.71 206.54C368.411 225.393 375.548 253.182 371.82 272.231C370.806 277.409 368.68 282.411 365.935 286.901C355.196 304.47 323.909 320.05 306.151 330.663C300.656 333.948 295.515 338.172 289.853 341.107C288.921 339.773 287.669 334.557 286.601 332.514C285.756 330.899 282.633 326.482 281 326.189C278.29 325.702 276.674 326.119 273.544 325.08C273.939 324.886 273.775 324.913 274.207 324.908C276.453 324.887 289.689 322.874 291.21 321.899C291.327 321.824 291.439 321.742 291.554 321.664C292.922 321.225 294.465 320.853 295.864 320.459C312.509 315.767 326.129 307.014 337.116 293.563C342.74 287.397 348.365 275.672 350.628 267.91C355.692 250.537 356.393 231.93 356.672 213.951C356.804 205.463 357.519 198.965 353.089 191.397C352.538 190.455 351.891 189.236 350.795 188.907C350.395 189.317 350.208 189.509 349.76 189.862C349.593 188.875 349.845 188.85 350.371 187.725C350.828 186.246 352.411 183.967 353.461 182.805C356.264 179.705 356.108 173.037 355.653 168.859L355.388 169.884C354.979 169.53 355.017 169.444 354.496 169.33C354.378 166.204 352.239 164.163 349.743 162.654C349.504 162.637 348.339 162.275 348.035 162.187Z"/><path fill="#77594A" transform="matrix(0.0625 0 0 0.0625 0 -0.00012207)" d="M349.743 162.654C353.628 162.252 354.981 165.694 355.653 168.859L355.388 169.884C354.979 169.53 355.017 169.444 354.496 169.33C354.378 166.204 352.239 164.163 349.743 162.654Z"/><defs><linearGradient id="gradient_25" gradientUnits="userSpaceOnUse" x1="343.07074" y1="151.47018" x2="378.23364" y2="139.66287"><stop offset="0" stop-color="#A16D42"/><stop offset="1" stop-color="#D2BEB1"/></linearGradient></defs><path fill="url(#gradient_25)" transform="matrix(0.0625 0 0 0.0625 0 -0.00012207)" d="M314.274 55.9549L314.405 55.7613C313.792 54.2198 309.164 52.0265 309.467 50.1543C310.429 49.6118 311.011 49.8291 312.009 50.1168C314.56 51.313 322.89 57.4004 324.955 59.4221C326.509 60.4886 328.733 62.605 330.202 63.922C341.385 73.0177 354.751 89.1863 362.137 101.553C377.189 126.755 383.793 157.007 391.512 185.032C394.741 196.855 397.739 208.231 400.439 220.163C402.164 227.79 404.185 235.311 405.533 243.056C405.198 243.567 405.342 243.399 404.845 243.768C402.712 243.117 400.504 238.136 399.269 236.298C398.568 235.255 397.651 234.617 397.253 233.444L397.027 233.44C397.179 235.494 398.686 239.147 398.32 240.315L397.805 240.09L393.219 219.663C392.343 215.712 391.577 211.491 390.517 207.621C389.776 204.448 388.51 200.983 387.76 197.784C386.229 191.249 384.401 185.004 382.25 178.65C381.506 176.454 380.613 173.222 379.653 171.181C378.733 168.403 377.482 165.718 376.527 162.959C371.922 149.652 366.627 136.4 358.749 124.654C357.246 122.414 355.581 120.095 354.168 117.801C353.545 114.942 351.175 114.532 350.339 112.045C349.818 110.496 350.134 107.638 349.677 105.943C348.195 100.451 345.957 95.2238 344.078 89.8827L344.264 89.7187C344.788 90.2324 345.849 92.9594 346.333 93.9062C346.269 93.5502 345.976 90.4901 346.094 90.7156C341.142 81.2481 331.498 70.3956 323.511 63.3478C320.291 60.2988 316.666 58.4832 314.274 55.9549Z"/><path fill="#AF8467" transform="matrix(0.0625 0 0 0.0625 0 -0.00012207)" d="M324.955 59.4221C326.509 60.4886 328.733 62.605 330.202 63.922C329.523 64.2121 329.539 64.1651 328.787 64.1286C328.014 63.7676 326.874 62.8725 326.687 62.2438C326.175 60.5197 325.201 60.6741 324.955 59.4221Z"/><path fill="#C7AD9B" transform="matrix(0.0625 0 0 0.0625 0 -0.00012207)" d="M330.207 67.375C333.049 68.4766 337.915 75.5422 340.076 77.7456C340.478 78.4318 343.972 79.8493 344.194 80.1862C346.8 84.1299 350.242 90.4812 353.118 94.0466L353.259 94.2192L353.068 94.4053C353.025 94.3807 346.661 86.9922 346.296 86.4567C341.529 79.4542 335.671 73.7301 330.207 67.375Z"/><defs><linearGradient id="gradient_26" gradientUnits="userSpaceOnUse" x1="469.18515" y1="460.09253" x2="477.16788" y2="456.3302"><stop offset="0" stop-color="#A76C3C"/><stop offset="1" stop-color="#C5AA96"/></linearGradient></defs><path fill="url(#gradient_26)" transform="matrix(0.0625 0 0 0.0625 0 -0.00012207)" d="M451.295 413.817C451.249 411.439 449.02 407.806 448.1 405.384L448.23 405.186C448.529 405.576 448.485 405.655 448.596 406.137L449.07 406.18C449.787 406.696 448.89 406.729 449.748 408.018L450.041 407.894L449.797 408.043L450.325 407.628C451.054 408.591 451.437 409.054 452.286 409.909C454.044 415.285 460.188 421.644 461.274 427.982C461.497 429.285 463.248 431.803 464.335 432.663L464.788 432.611L465.037 432.174L466.136 431.678C470.729 442.021 475.757 452.217 480.365 462.561C487.621 478.85 494.527 495.07 500.186 512L487.688 512L487.625 511.408L488.098 511.13C488.786 511.222 488.985 511.274 489.687 511.227C490.409 507.736 485.434 501.714 485.403 501.345C485.321 500.388 485.292 499.448 485.906 498.715C487.01 499.74 490.209 506.784 490.482 508.384C489.224 510.465 491.496 511.283 493.173 511.33L493.334 511.093C490.668 505.966 489.81 502.829 487.833 497.533C485.868 492.248 483.73 487.029 481.422 481.884C479.105 476.823 476.148 471.979 473.99 466.783C473.615 465.879 472.725 464.765 472.534 463.917C471.9 461.114 469.624 458.083 468.33 455.163C466.95 452.05 465.41 448.519 463.799 445.574L463.412 444.868L463.308 445.096C463.592 445.945 464.154 447.549 464.005 448.382C462.947 447.766 462.395 445.506 462.448 444.38C464.742 441.952 460.481 436.834 459.719 434.136C458.334 429.23 457.682 425.109 454.576 420.875C453.717 419.705 451.806 415.271 451.295 413.817Z"/><path fill="#AF8467" transform="matrix(0.0625 0 0 0.0625 0 -0.00012207)" d="M478.769 470.897C479.955 471.391 482.944 476.147 483.451 477.441C484.373 479.792 485.127 482.694 485.862 485.162L485.936 485.32L485.749 485.689C483.775 482.424 480.282 474.524 478.769 470.897Z"/><path fill="#AF8467" transform="matrix(0.0625 0 0 0.0625 0 -0.00012207)" d="M488.608 489.999C489.504 490.933 494.342 504.476 494.265 506.111C493.966 505.512 493.118 502.757 492.899 501.975C491.902 498.407 488.792 493.61 488.608 489.999Z"/><defs><linearGradient id="gradient_27" gradientUnits="userSpaceOnUse" x1="386.42236" y1="273.44632" x2="412.79337" y2="262.46457"><stop offset="0" stop-color="#9E6428"/><stop offset="1" stop-color="#C8A58D"/></linearGradient></defs><path fill="url(#gradient_27)" transform="matrix(0.0625 0 0 0.0625 0 -0.00012207)" d="M397.805 240.09L398.32 240.315C398.686 239.147 397.179 235.494 397.027 233.44L397.253 233.444C397.651 234.617 398.568 235.255 399.269 236.298C400.504 238.136 402.712 243.117 404.845 243.768C405.342 243.399 405.198 243.567 405.533 243.056C409.001 263.715 410.774 281.743 401.395 301.604C399.826 304.925 398.114 308.148 395.963 311.14C395.624 311.618 395.253 312.073 394.853 312.501C394.796 310.834 396.374 309.575 397.392 308.238C399.65 305.271 398.46 301.931 400.852 299.268C400.918 296.205 402.452 288.474 401.777 286.259C401.063 287.148 400.315 290.762 399.528 292.396C399.198 290.384 402.19 282.161 402.358 279.273C402.533 276.273 402.263 273.897 402.057 270.91L401.755 270.871C401.772 271.108 401.789 271.344 401.806 271.581C400.804 273.534 400.739 277.787 400.261 280.296C400.088 276.489 401.018 272.284 400.824 268.649C400.318 259.176 399.207 249.448 397.805 240.09Z"/><path fill="#C7AD9B" transform="matrix(0.0625 0 0 0.0625 0 -0.00012207)" d="M436.859 380.755C434.657 377.468 431.968 373.218 431.822 369.265L432.128 368.96C432.743 369.368 433.211 369.657 433.851 370.025C442.228 381.059 446.72 390.632 452.675 403.045C456.609 411.258 460.494 419.495 464.329 427.756C464.918 429.027 465.585 430.401 466.136 431.678L465.037 432.174L464.788 432.611L464.335 432.663C463.248 431.803 461.497 429.285 461.274 427.982C460.188 421.644 454.044 415.285 452.286 409.909C451.437 409.054 451.054 408.591 450.325 407.628L449.797 408.043L450.041 407.894L449.748 408.018C448.89 406.729 449.787 406.696 449.07 406.18L448.596 406.137C448.485 405.655 448.529 405.576 448.23 405.186L448.1 405.384C449.02 407.806 451.249 411.439 451.295 413.817C450.769 412.684 450.071 410.038 449.311 409.374C444.607 405.262 443.62 400.023 440.172 394.844C438.891 391.812 436.269 388.73 434.611 385.876C433.698 384.213 433.306 382.136 432.373 380.5C431.298 378.614 429.526 378.145 428.709 376.007C429.234 376.342 429.386 376.47 429.945 376.72L430.794 377.628C431.222 378.286 431.071 377.963 431.383 378.33C433.449 380.765 434.379 385.557 438.08 386.087C437.624 384.321 437.217 382.544 436.859 380.755Z"/><defs><linearGradient id="gradient_28" gradientUnits="userSpaceOnUse" x1="442.39481" y1="397.94592" x2="446.26987" y2="396.08514"><stop offset="0" stop-color="#B58A69"/><stop offset="1" stop-color="#C7A78D"/></linearGradient></defs><path fill="url(#gradient_28)" transform="matrix(0.0625 0 0 0.0625 0 -0.00012207)" d="M428.709 376.007C429.234 376.342 429.386 376.47 429.945 376.72L430.794 377.628C431.222 378.286 431.071 377.963 431.383 378.33C433.449 380.765 434.379 385.557 438.08 386.087C439.088 386.943 442.135 393.664 444.928 395.477L445.113 395.745C445.714 396.602 447.633 398.743 447.837 399.099C449.084 401.275 451.972 407.66 452.286 409.909C451.437 409.054 451.054 408.591 450.325 407.628L449.797 408.043L450.041 407.894L449.748 408.018C448.89 406.729 449.787 406.696 449.07 406.18L448.596 406.137C448.485 405.655 448.529 405.576 448.23 405.186L448.1 405.384C449.02 407.806 451.249 411.439 451.295 413.817C450.769 412.684 450.071 410.038 449.311 409.374C444.607 405.262 443.62 400.023 440.172 394.844C438.891 391.812 436.269 388.73 434.611 385.876C433.698 384.213 433.306 382.136 432.373 380.5C431.298 378.614 429.526 378.145 428.709 376.007Z"/><path fill="#BF9C82" transform="matrix(0.0625 0 0 0.0625 0 -0.00012207)" d="M436.859 380.755C439.939 384.605 441.07 387.559 443.115 391.981C443.712 393.271 444.392 394.01 444.928 395.477C442.135 393.664 439.088 386.943 438.08 386.087C437.624 384.321 437.217 382.544 436.859 380.755Z"/><path fill="#BBABA6" transform="matrix(0.0625 0 0 0.0625 0 -0.00012207)" d="M464.329 427.756C464.918 429.027 465.585 430.401 466.136 431.678L465.037 432.174C464.65 431.961 464.535 431.835 464.19 431.556C463.52 430.08 463.849 429.329 464.329 427.756Z"/><defs><linearGradient id="gradient_29" gradientUnits="userSpaceOnUse" x1="341.91116" y1="145.5666" x2="351.55026" y2="136.40776"><stop offset="0" stop-color="#C1690B"/><stop offset="1" stop-color="#D18213"/></linearGradient></defs><path fill="url(#gradient_29)" transform="matrix(0.0625 0 0 0.0625 0 -0.00012207)" d="M281.3 95.5064C283.043 94.671 295.975 98.7782 298.249 99.6388C308.637 103.57 318.795 108.77 327.082 116.274C330.037 118.936 332.045 121.436 335.056 124.069C336.813 125.605 340.445 127.244 340.801 128.238C340.261 128.724 340.409 128.427 340.2 129.059C340.801 130.179 341.172 130.928 341.936 131.958L342.583 132.069L342.365 132.108L342.759 131.804L342.792 130.427C343.381 130.27 345.473 130.781 346.025 131.065C346.449 131.632 346.428 131.74 346.644 132.43L346.952 132.613C350.253 134.599 353.726 139.113 356.561 142.026C357.724 143.222 360.758 149.76 361.412 151.648C361.948 153.196 361.519 156.095 360.192 157.249C358.616 156.89 357.675 154.364 356.272 154.126C355.153 153.936 354.791 152.741 354.169 151.587C354.205 152.457 356.217 157.371 356.241 157.049C355.922 161.344 357.902 161.322 359.493 164.482L359.157 164.558C358.92 164.264 358.218 163.295 358.012 163.116C355.96 161.33 356.652 158.248 353.754 157.665C352.849 157.484 352.578 154.84 351.374 153.65C351.111 153.277 349.27 148.997 348.904 148.195C346.04 139.792 336.262 126.59 330.235 120.028C321.666 110.697 308.631 103.81 296.842 99.5446C291.957 97.7774 286.415 96.6292 281.3 95.5064Z"/><defs><linearGradient id="gradient_30" gradientUnits="userSpaceOnUse" x1="452.47165" y1="424.6535" x2="455.62497" y2="423.15665"><stop offset="0" stop-color="#A26A43"/><stop offset="1" stop-color="#B3825B"/></linearGradient></defs><path fill="url(#gradient_30)" transform="matrix(0.0625 0 0 0.0625 0 -0.00012207)" d="M427.213 378.63L427.526 377.987C427.123 376.866 426.139 375.583 425.209 374.848C423.949 373.853 424.068 373.321 423.435 371.924L423.74 371.817L424.338 372.531L424.959 372.542C426.58 373.596 430.169 381.126 431.319 382.707C434.23 386.711 436.828 390.917 439.597 394.957L440.172 394.844C443.62 400.023 444.607 405.262 449.311 409.374C450.071 410.038 450.769 412.684 451.295 413.817C451.806 415.271 453.717 419.705 454.576 420.875C457.682 425.109 458.334 429.23 459.719 434.136C460.481 436.834 464.742 441.952 462.448 444.38L462.403 442.995C462.368 441.777 461.616 439.262 460.324 438.913C459.967 439.553 460.285 444.095 459.923 445.828L459.744 445.738C458.658 443.377 459.934 440.748 459.569 439.502C458.354 435.351 457.027 427.965 452.641 425.945C452.437 426.469 452.584 426.211 452.169 426.699L451.845 426.547C451.764 423.936 450.721 423.414 449.855 421.046C449.263 419.426 448.379 413.588 446.759 412.741C446.044 413.071 446.322 412.813 445.978 413.62C446.16 415.396 447.829 415.908 447.622 417.09L447.21 417.299C446.255 416.789 445.906 415.189 445.213 414.826C444.114 414.249 441.495 413.775 442.085 411.83C443.053 412.791 443.704 413.929 444.746 414.492L445.135 414.272C445.295 413.78 445.381 413.477 445.254 412.959C444.804 411.12 444.543 410.827 442.998 409.811C441.448 408.792 439.953 403.093 439.077 401.027C437.785 397.983 434.274 394.494 433.753 391.86C433.02 388.162 429.625 382.603 426.601 380.256C424.435 378.575 423.466 377.015 422.294 374.591L422.577 374.348L422.706 374.522C424.172 376.445 425.457 377.062 427.213 378.63Z"/><path fill="#C3691B" transform="matrix(0.0625 0 0 0.0625 0 -0.00012207)" d="M427.213 378.63L427.526 377.987C427.123 376.866 426.139 375.583 425.209 374.848C423.949 373.853 424.068 373.321 423.435 371.924L423.74 371.817L424.338 372.531L424.959 372.542C426.58 373.596 430.169 381.126 431.319 382.707C434.23 386.711 436.828 390.917 439.597 394.957C439.694 395.258 440.215 395.875 440.277 396.123C440.578 397.344 442.296 402.001 442.133 402.914L441.794 402.838C441.297 402.2 441.275 402.169 440.977 401.444C438.167 394.598 434.602 388.092 429.938 382.317C429.374 381.618 427.325 379.372 427.213 378.63Z"/><defs><linearGradient id="gradient_31" gradientUnits="userSpaceOnUse" x1="429.2316" y1="374.07556" x2="433.72787" y2="371.34088"><stop offset="0" stop-color="#B68B68"/><stop offset="1" stop-color="#C9AE9A"/></linearGradient></defs><path fill="url(#gradient_31)" transform="matrix(0.0625 0 0 0.0625 0 -0.00012207)" d="M393.913 341.49C396.206 342.262 400.868 344.873 402.506 344.861C405.579 346.099 413.74 351.076 416.203 353.148C420.506 355.597 431.152 365.875 433.851 370.025C433.211 369.657 432.743 369.368 432.128 368.96L431.822 369.265C431.968 373.218 434.657 377.468 436.859 380.755C437.217 382.544 437.624 384.321 438.08 386.087C434.379 385.557 433.449 380.765 431.383 378.33C431.071 377.963 431.222 378.286 430.794 377.628L429.945 376.72C429.386 376.47 429.234 376.342 428.709 376.007C425.976 373.084 423.375 365.924 420.373 362.506C418.939 360.872 416.057 358.128 415.279 356.572C415.257 356.542 415.235 356.513 415.213 356.483C412.112 354.402 409.564 351.285 406.548 349.147C406.137 348.856 406.201 348.928 405.724 349.07L405.396 349.707C403.957 349.372 400.782 346.397 399.354 345.399C397.7 344.244 394.873 343.148 393.913 341.49Z"/><path fill="#AF8467" transform="matrix(0.0625 0 0 0.0625 0 -0.00012207)" d="M393.913 341.49C396.206 342.262 400.868 344.873 402.506 344.861C405.579 346.099 413.74 351.076 416.203 353.148C416.236 353.317 416.269 353.487 416.302 353.657C420.201 356.759 424.152 359.805 426.866 364.068C427.151 364.517 428.008 365.727 427.937 366.225C426.994 365.778 426.764 365.069 426.22 364.311C424.225 361.537 421.082 359.377 418.373 357.455L418.13 357.571C418.598 358.344 418.811 358.659 419.363 359.373L419.285 359.646C417.966 358.59 416.676 357.521 415.279 356.572C415.257 356.542 415.235 356.513 415.213 356.483C412.112 354.402 409.564 351.285 406.548 349.147C406.137 348.856 406.201 348.928 405.724 349.07L405.396 349.707C403.957 349.372 400.782 346.397 399.354 345.399C397.7 344.244 394.873 343.148 393.913 341.49Z"/><path fill="#AF8467" transform="matrix(0.0625 0 0 0.0625 0 -0.00012207)" d="M419.362 359.333C423.17 361.897 425.307 368.019 427.184 369.614C427.645 370.218 427.848 370.624 428.459 371.023C428.79 371.848 430.955 377.285 430.794 377.628L429.945 376.72C429.685 376.284 429.602 376.135 429.274 375.742C427.697 373.855 426.689 371.237 425.4 368.995C423.479 365.718 421.465 362.496 419.362 359.333Z"/><path fill="#BF9C82" transform="matrix(0.0625 0 0 0.0625 0 -0.00012207)" d="M427.184 369.614L427.24 369.261C426.881 368.484 425.849 366.732 425.87 366.142C427.549 366.155 428.608 369.307 428.78 370.731L428.459 371.023C427.848 370.624 427.645 370.218 427.184 369.614Z"/><path fill="#A97850" transform="matrix(0.0625 0 0 0.0625 0 -0.00012207)" d="M323.511 63.3478C331.498 70.3956 341.142 81.2481 346.094 90.7156C345.976 90.4901 346.269 93.5502 346.333 93.9062C345.849 92.9594 344.788 90.2324 344.264 89.7187L344.078 89.8827C345.957 95.2238 348.195 100.451 349.677 105.943C350.134 107.638 349.818 110.496 350.339 112.045C351.175 114.532 353.545 114.942 354.168 117.801C352.395 116.077 349.751 112.463 347.679 110.329C344.634 107.193 340.225 103.383 337.508 100.227L337.701 100.114L344.769 106.809C343.936 101.018 342.189 92.7292 340.824 86.7742C340.314 84.9002 333.929 78.6102 333.763 77.3406C333.323 73.9684 326.769 71.8871 327.086 70.2142C327.992 70.6026 328.716 70.9188 329.65 71.2249C328.038 70.1632 327.938 69.4832 326.791 67.8115C326.658 67.462 324.3 64.784 323.511 63.3478Z"/><defs><linearGradient id="gradient_32" gradientUnits="userSpaceOnUse" x1="388.34802" y1="474.75888" x2="391.49728" y2="474.58334"><stop offset="0" stop-color="#3B0100"/><stop offset="1" stop-color="#550D00"/></linearGradient></defs><path fill="url(#gradient_32)" transform="matrix(0.0625 0 0 0.0625 0 -0.00012207)" d="M391.233 512C391.155 507.51 389.869 500.166 389.484 495.514C388.28 480.979 385.412 442.357 390.601 429.75L390.607 429.751C390.948 430.64 390.311 431.292 390.248 432.321C390.098 434.796 388.304 436.657 389.786 438.984C389.759 439.184 389.73 447.378 389.732 448.059C389.77 466.165 389.715 485.34 392.539 503.234C392.882 505.407 393.468 510.039 393.997 512L391.233 512Z"/><path fill="#761D02" transform="matrix(0.0625 0 0 0.0625 0 -0.00012207)" d="M163.916 148.289C162.322 152.117 160.859 155.857 159.372 159.728C158.168 162.864 155.541 166.144 154.7 169.598C154.277 171.048 154.608 176.565 154.546 177.937C154.435 180.41 152.519 191.263 151.741 192.99C151.134 191.615 153.429 182.951 153.705 180.769C154.02 178.272 152.915 172.149 153.45 170.342L153.145 169.891C152.589 170.243 152.789 170.162 152.179 170.306L152.085 170.041C152.508 168.978 152.497 168.627 152.624 167.585C152.874 165.538 155.694 157.291 156.926 156.397C157.496 156.842 157.426 157.74 157.549 158.647C158.348 157.715 157.971 156.687 158.444 155.686C158.74 155.059 160.527 153.864 160.893 153.265C162.167 151.186 162.183 150.196 163.916 148.289Z"/><path fill="#620D01" transform="matrix(0.0625 0 0 0.0625 0 -0.00012207)" d="M389.786 438.984L389.909 438.487C390.248 437.078 390.688 434.911 390.772 433.501L391.081 433.414C391.404 433.985 391.37 434.511 391.346 435.148C391.312 436.067 390.993 436.919 390.918 437.828C390.604 441.632 389.728 460.47 390.619 463.094C390.843 463.752 390.636 465.209 390.628 465.949L391.066 466.146C391.424 467.429 390.75 468.14 390.945 469.435C391.747 467.01 391.236 466.044 391.744 464.241C392.65 467.275 390.931 468.995 390.906 471.483C390.838 478.333 391.466 485.194 391.864 492.033C392.078 495.695 392.837 499.331 393.127 503.054L393.32 503.04L393.758 502.071C394.682 503.812 392.726 510.198 395.306 511.163C397.01 511.801 401.917 510.193 402.958 512L393.997 512C393.468 510.039 392.882 505.407 392.539 503.234C389.715 485.34 389.77 466.165 389.732 448.059C389.73 447.378 389.759 439.184 389.786 438.984Z"/><path fill="#A97850" transform="matrix(0.0625 0 0 0.0625 0 -0.00012207)" d="M405.396 349.707L405.724 349.07C406.201 348.928 406.137 348.856 406.548 349.147C409.564 351.285 412.112 354.402 415.213 356.483C415.235 356.513 415.257 356.542 415.279 356.572C416.057 358.128 418.939 360.872 420.373 362.506C423.375 365.924 425.976 373.084 428.709 376.007C429.526 378.145 431.298 378.614 432.373 380.5C433.306 382.136 433.698 384.213 434.611 385.876C436.269 388.73 438.891 391.812 440.172 394.844L439.597 394.957C436.828 390.917 434.23 386.711 431.319 382.707C430.169 381.126 426.58 373.596 424.959 372.542C424.801 372.507 424.373 372.276 424.205 372.193L424.793 371.903L424.523 371.485C424.553 370.76 423.137 368.246 422.544 367.948C420.234 366.789 419.486 363.018 417.902 361.341C416.511 359.867 411.333 357.996 410.115 356.81L410.347 356.594C411.565 356.758 412.232 357.412 413.426 358.002L413.769 357.764L413.872 356.652C412.964 354.564 407.541 351.513 405.396 349.707Z"/><path fill="#C3691B" transform="matrix(0.0625 0 0 0.0625 0 -0.00012207)" d="M304.63 48.7259C306.519 48.8833 312.503 54.5521 314.274 55.9549C316.666 58.4832 320.291 60.2988 323.511 63.3478C324.3 64.784 326.658 67.462 326.791 67.8115C326.26 68.8764 326.887 68.5514 326.389 69.6364C325.906 69.4032 325.674 69.2805 325.446 68.6012C324.401 65.6759 320.952 64.5962 318.695 62.7927C316.091 60.7111 318.363 57.8086 313.906 58.2612C312.918 57.7869 308.805 54.4708 308.401 53.4717C309.565 52.9551 312.53 56.8982 314.636 57.5134L314.792 57.3445C312.708 54.5414 307.445 51.1078 304.63 48.7259Z"/><defs><linearGradient id="gradient_33" gradientUnits="userSpaceOnUse" x1="355.77869" y1="165.57623" x2="357.43332" y2="159.80626"><stop offset="0" stop-color="#7F2900"/><stop offset="1" stop-color="#A64A08"/></linearGradient></defs><path fill="url(#gradient_33)" transform="matrix(0.0625 0 0 0.0625 0 -0.00012207)" d="M351.374 153.65C352.578 154.84 352.849 157.484 353.754 157.665C356.652 158.248 355.96 161.33 358.012 163.116C358.218 163.295 358.92 164.264 359.157 164.558L359.333 164.82C361.055 167.353 365.342 171.618 365.936 173.848L365.825 174.362C364.493 172.169 363.248 169.395 360.581 168.715C359.594 168.464 358.645 167.74 357.794 167.153C354.835 165.592 352.311 156.656 351.374 153.65Z"/><path fill="#8B4203" transform="matrix(0.0625 0 0 0.0625 0 -0.00012207)" d="M390.517 207.621C387.823 204.477 387.597 194.723 384.869 191.279C382.604 188.421 384.2 188.548 383.747 185.2C383.454 183.039 379.027 172.249 379.653 171.181C380.613 173.222 381.506 176.454 382.25 178.65C384.401 185.004 386.229 191.249 387.76 197.784C388.51 200.983 389.776 204.448 390.517 207.621Z"/><path fill="#D48317" transform="matrix(0.0625 0 0 0.0625 0 -0.00012207)" d="M379.655 230.61C380.276 230.768 380.427 230.657 380.601 231.032C386.292 243.323 387.638 262.062 386.641 275.51C386.358 279.331 384.269 287.649 383.224 291.342C381.082 298.911 378.203 304.074 371.402 307.931C370.441 308.696 369.492 310.391 368.074 310.475C368.262 309.827 368.57 308.843 368.646 308.189C369.007 305.077 370.28 302.007 371.029 298.979C373.125 290.513 375.549 282.205 376.983 273.575C377.217 270.973 377.081 268.311 377.236 265.712C377.732 257.396 377.515 249.118 377.578 240.811C377.591 239.147 378.849 231.793 379.655 230.61Z"/><path fill="#620D01" transform="matrix(0.0625 0 0 0.0625 0 -0.00012207)" d="M357.542 338.761L357.938 338.878C356.286 339.71 354.799 340.07 353.143 340.778C343.044 345.097 332.169 347.343 321.835 351.019C321.205 351.243 321.017 351.486 320.788 352.051C321.278 352.477 321.003 352.371 321.594 352.42C322.248 352.009 323.793 351.665 324.549 351.878C323.711 352.496 322.531 352.805 321.343 353.182C311.654 356.253 302.773 361.577 293.431 365.445C291.7 366.162 287.192 369.366 286.512 369.394C287.159 368.175 292.085 366.113 293.323 364.957C294.249 364.093 296.505 363.644 297.801 362.948L298.126 362.77C299.245 362.612 301.814 360.99 302.673 360.123C300.857 359.927 299.711 360.19 298.309 361.242C297.205 362.07 286.436 368.251 286.343 368.248L286.443 368.01C287.698 367.016 288.928 366.352 290.259 365.517C300.322 359.367 311.496 353.737 322.801 350.244C334.739 346.556 345.893 343.341 357.542 338.761Z"/></svg>